<?xml version="1.0" encoding="UTF-8"?>
<svg id="Layer_1" data-name="Layer 1" xmlns="http://www.w3.org/2000/svg" viewBox="0 0 512 512">
  <defs>
    <style>
      .cls-1 {
        stroke: #989a9e;
      }

      .cls-1, .cls-2, .cls-3, .cls-4, .cls-5, .cls-6, .cls-7, .cls-8, .cls-9, .cls-10, .cls-11, .cls-12, .cls-13, .cls-14, .cls-15, .cls-16, .cls-17, .cls-18, .cls-19, .cls-20, .cls-21, .cls-22, .cls-23, .cls-24, .cls-25, .cls-26, .cls-27, .cls-28, .cls-29, .cls-30, .cls-31, .cls-32, .cls-33, .cls-34, .cls-35, .cls-36, .cls-37, .cls-38, .cls-39, .cls-40, .cls-41, .cls-42, .cls-43, .cls-44, .cls-45, .cls-46, .cls-47 {
        fill: none;
        stroke-width: 2px;
      }

      .cls-2 {
        stroke: #7dc2d1;
      }

      .cls-3 {
        stroke: #84612e;
      }

      .cls-4 {
        stroke: #c5d3db;
      }

      .cls-5 {
        stroke: #adabab;
      }

      .cls-6 {
        stroke: #eac589;
      }

      .cls-7 {
        stroke: #f0c173;
      }

      .cls-8 {
        stroke: #252724;
      }

      .cls-9 {
        stroke: #efac31;
      }

      .cls-10 {
        stroke: #b3a695;
      }

      .cls-48 {
        fill: #a6680e;
      }

      .cls-48, .cls-49, .cls-50, .cls-51, .cls-52, .cls-53, .cls-54, .cls-55, .cls-56, .cls-57, .cls-58, .cls-59, .cls-60, .cls-61, .cls-62 {
        stroke-width: 0px;
      }

      .cls-49 {
        fill: #ef9f25;
      }

      .cls-50 {
        fill: #70a4ba;
      }

      .cls-11 {
        stroke: #846e3a;
      }

      .cls-12 {
        stroke: #cb841a;
      }

      .cls-13 {
        stroke: #85837c;
      }

      .cls-51 {
        fill: #eca9a4;
      }

      .cls-52 {
        fill: #756a69;
      }

      .cls-14 {
        stroke: #b8d2dd;
      }

      .cls-15 {
        stroke: #acdee5;
      }

      .cls-16 {
        stroke: #e9cac8;
      }

      .cls-53 {
        fill: #8ae0e7;
      }

      .cls-17 {
        stroke: #8b8b7f;
      }

      .cls-54 {
        fill: #302a11;
      }

      .cls-18 {
        stroke: #ebe7d7;
      }

      .cls-19 {
        stroke: #474750;
      }

      .cls-55 {
        fill: #cedce2;
      }

      .cls-20 {
        stroke: #586b7c;
      }

      .cls-56 {
        fill: #bbcad3;
      }

      .cls-57 {
        fill: #e5ebec;
      }

      .cls-21 {
        stroke: #a9bfca;
      }

      .cls-22 {
        stroke: #52828f;
      }

      .cls-23 {
        stroke: #c2aeb2;
      }

      .cls-24 {
        stroke: #74808d;
      }

      .cls-25 {
        stroke: #6a7785;
      }

      .cls-58 {
        fill: #fff;
      }

      .cls-26 {
        stroke: #90651b;
      }

      .cls-27 {
        stroke: #ead295;
      }

      .cls-59 {
        fill: #efb83d;
      }

      .cls-28 {
        stroke: #d0dbe0;
      }

      .cls-29 {
        stroke: #918669;
      }

      .cls-30 {
        stroke: #456479;
      }

      .cls-31 {
        stroke: #becfd6;
      }

      .cls-32 {
        stroke: #d5c188;
      }

      .cls-33 {
        stroke: #84acbd;
      }

      .cls-34 {
        stroke: #bdcc92;
      }

      .cls-35 {
        stroke: #604623;
      }

      .cls-36 {
        stroke: #83666e;
      }

      .cls-37 {
        stroke: #abc8d3;
      }

      .cls-38 {
        stroke: #dae4e7;
      }

      .cls-39 {
        stroke: #907127;
      }

      .cls-60 {
        fill: #192337;
      }

      .cls-61 {
        fill: #f1e2c1;
      }

      .cls-40 {
        stroke: #eea465;
      }

      .cls-41 {
        stroke: #f0cd7f;
      }

      .cls-42 {
        stroke: #cca568;
      }

      .cls-43 {
        stroke: #f2f5f6;
      }

      .cls-44 {
        stroke: #7f8792;
      }

      .cls-45 {
        stroke: #738792;
      }

      .cls-62 {
        fill: #97b3c0;
      }

      .cls-46 {
        stroke: #96b7c7;
      }

      .cls-47 {
        stroke: #8c919b;
      }
    </style>
  </defs>
  <g>
    <path class="cls-43" d="m166.86,430.52c.09-.21.39-.34.92-.39" vector-effect="non-scaling-stroke"/>
    <path class="cls-47" d="m167.78,430.13c2.69,10.11,5.34,20.24,7.97,30.38,1.67,6.44,5.67,11.04,12,13.81.31.13.5.36.58.69,1.53,6.12,1.8,10.23,7.98,13.07,1.65.76,4.17,1.15,7.56,1.16,38.83.17,71.2.84,117.98.1,7.98-.13,13.12-4.83,13.41-13.11,0-.31.15-.6.4-.8.63-.51.74-1.1.33-1.77-.18-.29-.12-.53.17-.72,4.46-2.77,7.32-6.17,8.58-10.2,1.61-5.14,4.35-15.93,8.22-32.36" vector-effect="non-scaling-stroke"/>
    <path class="cls-14" d="m352.96,430.38c.17,0,.35.01.53.01" vector-effect="non-scaling-stroke"/>
    <path class="cls-47" d="m353.49,430.39c21.36.31,42.71.35,64.04.13,2.42-.03,4.94.49,3.97-3.37-.09-.33.02-.69.28-.92,1-.87,2.76-2.42,5.29-4.64,34.91-30.67,46.24-81.35,22.89-122.15-2.7-4.73-6.58-9.98-9.94-14.96-.18-.27-.18-.54,0-.82l7.71-11.91c.37-.57.21-1.33-.35-1.7-.24-.16-.53-.23-.82-.19-6.06.73-13.83,1.12-18.65-3.23-.99-.89-.99-1.79,0-2.68,14.36-12.96,20.62-32.16,19.87-51.04-.02-.39-.35-.7-.74-.68-.06,0-.12.01-.18.03-12.17,3.86-19.98,5.31-30.41-3.46-10.33-8.68-18.99-21.59-16.39-35.36,3.5-18.55,6.1-37.22,7.79-56,.88-9.75.66-19.89.59-29.82-.09-11.02-1.12-33.99-10.71-40.46-5.17-3.48-14.75-2.71-20.73-1.66-28.01,4.95-53.9,23-74.45,41.8-1.75,1.6-3.37,2.7-5.93,2.18-11.26-2.31-21.71-4.74-33.96-5.38-3.43-.18-8.76.14-13.66-.1-3.08-.15-7.31.09-12.7.71-8.72.99-17.37,3.29-25.83,5.78-.87.26-1.81.08-2.53-.47-3.38-2.6-7.03-6.06-9.92-8.35-13.15-10.44-27.49-18.91-43.02-25.42-9.26-3.87-19.98-7.4-30.03-8.01-8.56-.51-14.76-.35-17.39,8.82-2.35,8.21-3.54,16.6-3.56,25.19,0,1.57-.59,3.39-.53,5.02.28,9.24-.14,18.99.45,27.61.71,10.51,1.68,21,2.92,31.47.48,4,.5,8.79.87,13.64.55,7.25-.35,15.98-2.71,26.2-3.14,13.6-10.52,19.01-20.34,27.97-.25.23-.54.34-.88.33l-24.55-.7c-.31,0-.57.23-.58.53,0,.04,0,.08,0,.12,1.91,10.37,6.03,19.75,12.34,28.14.29.39.21.95-.18,1.25-.18.13-.39.19-.61.17l-9.52-.91c-.25-.02-.48.17-.5.42,0,.1.02.2.07.28,5.59,8.89,13.22,15.4,22.91,19.52.26.11.25.19-.03.22-4.39.47-8.77.33-13.15-.43-.43-.07-.85.21-.93.64-.03.18,0,.37.1.54,2.8,4.82,6.04,9.33,9.73,13.52.76.86.79,2.14.07,3.03-3.71,4.57-7.21,9.27-10.5,14.1-29.96,44.02-15.36,100.75,26.27,131.21.29.21.49.53.57.88l.61,2.95c.07.36.29.54.66.54h70.27" vector-effect="non-scaling-stroke"/>
    <path class="cls-30" d="m353.49,430.39c.46-1.43,1.84-8.53,3.02-8.81" vector-effect="non-scaling-stroke"/>
    <path class="cls-44" d="m356.51,421.58c18.32-.03,36.65-.14,54.98-.32,1.62-.01,3.72-.22,5-.52,5.08-1.2,3.89-9.57-2.7-9.64-16.01-.15-32-.31-47.98-.48-1.77-.02-4.32.43-6.56-.27" vector-effect="non-scaling-stroke"/>
    <path class="cls-20" d="m359.25,410.35c-.13-1.36.03-2.44.48-3.24" vector-effect="non-scaling-stroke"/>
    <path class="cls-44" d="m359.73,407.11c15.04-.05,30.07-.11,45.09-.17,1.58,0,3.03-.71,4.35-2.1,4.41-4.65,1.41-12.2-3.42-14.82-1.54-.84-3.63-1.26-6.28-1.26-11.71-.03-23.41-.03-35.1,0-.33,0-.54.16-.62.49l-4.6,17.48" vector-effect="non-scaling-stroke"/>
    <path class="cls-20" d="m359.15,406.73l-.86,3.52" vector-effect="non-scaling-stroke"/>
    <path class="cls-44" d="m358.29,410.25l-2.89,10.99" vector-effect="non-scaling-stroke"/>
    <path class="cls-30" d="m355.4,421.24l-2.44,9.14" vector-effect="non-scaling-stroke"/>
    <path class="cls-44" d="m167.78,430.13l-4.98-19.9" vector-effect="non-scaling-stroke"/>
    <path class="cls-20" d="m162.8,410.23l-1.17-3.99" vector-effect="non-scaling-stroke"/>
    <path class="cls-44" d="m161.63,406.24l-4.55-16.77c-.11-.43-.5-.72-.94-.72h-39.8c-2.51,0-4.38.23-5.59.7-6.63,2.54-6.99,10.93-2.73,15.93.2.24.47.42.78.5,2.68.77,5.58,1.14,8.7,1.11,11.71-.11,25.96-.03,42.77.25" vector-effect="non-scaling-stroke"/>
    <path class="cls-20" d="m160.27,407.24c1.33-.4,1.8.71,1.41,3.33" vector-effect="non-scaling-stroke"/>
    <path class="cls-44" d="m161.68,410.57c-.75.17-1.64.26-2.68.25-18.75-.18-37.5-.11-56.25.21-4.99.08-8.33,5.82-3.79,8.99,2.28,1.59,8.67,1.54,10.8,1.52,18.14-.12,36.31-.09,54.52.08.32,0,.59.22.66.53l1.92,8.37" vector-effect="non-scaling-stroke"/>
    <path class="cls-31" d="m359.73,407.11c-.24-.06-.43-.19-.58-.38" vector-effect="non-scaling-stroke"/>
    <path class="cls-37" d="m356.51,421.58c-.54,0-.91-.12-1.11-.34" vector-effect="non-scaling-stroke"/>
    <path class="cls-31" d="m359.25,410.35c-.29-.13-.61-.16-.96-.1" vector-effect="non-scaling-stroke"/>
    <path class="cls-31" d="m161.63,406.24c.09.46-.36.79-1.36,1" vector-effect="non-scaling-stroke"/>
    <path class="cls-31" d="m162.8,410.23c-.42-.04-.79.07-1.12.34" vector-effect="non-scaling-stroke"/>
    <path class="cls-20" d="m383.3,128.38c-4.49.69-9.76-.03-13.04.12-10.47.47-20.38,3.11-29.73,7.93-.1.05-.35.17-.38.31-.07.27.02.35.28.23,14.44-6.66,29.06-8.85,44.73-6.67" vector-effect="non-scaling-stroke"/>
    <path class="cls-36" d="m385.16,130.3c1.59.25,2.76.76,3.51,1.51.68.69.54.97-.42.85l-11.94-1.54c-.2-.03-.38.11-.4.31-.01.1.02.2.08.28,4.83,5.93,9.18,12.2,13.05,18.79.14.24.45.33.7.19.12-.07.21-.19.24-.34,4.56-21.19,7.03-44.11,5.38-65.82-.62-8.06-1.01-17.33-4.08-24.87-.14-.34-.54-.5-.88-.36-.12.05-.22.13-.29.24-9.3,13.7-18.19,27.67-26.66,41.9-.47.79-.25,1.28.66,1.45,10.74,2,19.58,3.88,28.9,9.8,2.03,1.29,1.9,1.56-.39.82-9.17-2.96-22.89-5.78-33.01-3.75-.33.07-.59.25-.77.54l-4.83,7.88c-.27.45-.15.69.37.72,10.25.76,19.89,3.92,28.92,9.48" vector-effect="non-scaling-stroke"/>
    <path class="cls-23" d="m385.16,130.3l-1.86-1.92" vector-effect="non-scaling-stroke"/>
    <path class="cls-44" d="m302.33,110.63c21.91-22.46,43.08-41.56,73.89-50.89,1.19-.36,1.17-.43-.05-.22-28.57,5.04-57.02,28.46-74.2,50.87-.03.03-.03.07-.02.11.09.22.17.34.38.13" vector-effect="non-scaling-stroke"/>
    <path class="cls-36" d="m120.27,63.28c-1.53,2.68-2.06,4.89-1.59,6.63" vector-effect="non-scaling-stroke"/>
    <path class="cls-44" d="m118.68,69.91c-1.19,6.49-1.91,12.89-2.16,19.2-.55,14.47-.35,29.37,3.08,43.45.25,1.01.87,1.37,1.86,1.06,5.86-1.82,11.52-4.12,16.99-6.91.11-.06.14-.19.09-.3-.04-.08-.13-.13-.23-.11-4.05.71-8.07,1.61-12.06,2.72-.36.1-.75-.03-.95-.34-.11-.15.06-.47.49-.94" vector-effect="non-scaling-stroke"/>
    <path class="cls-36" d="m125.79,127.74c14.34-6.34,26.9-6.76,42.66-6.27" vector-effect="non-scaling-stroke"/>
    <path class="cls-3" d="m168.45,121.47c1.32.05,2.19.46,2.61,1.21,2.22,4,4.4,8.19,6.55,12.56.12.24.01.54-.23.65-.14.06-.29.06-.43,0-14.57-7.38-37.57-10.25-51.48.67-.49.39-.43.6.19.65,6.37.5,13.66.27,19.07,1.09,10.22,1.56,18.79,4.5,26.64,11.57.24.22.25.58.04.82-.13.15-.33.21-.53.18-16.09-3.02-32.03-2.1-47.83,2.76-1.61.49-2.36,1.86-2.27,4.11.18,4.47-.06,10.41-.72,17.82-1.35,15.22-7.12,26.03-16.75,37.74-8.11,9.86-18.15,17.03-30.12,21.5-.32.12-.36.3-.11.54,5.53,5.29,11.81,9.47,18.82,12.54,19.86,8.7,36-2.61,46.66-19.06.34-.53.2-1.23-.33-1.58-.16-.11-.35-.17-.54-.18-.95-.07-1.5-.49-1.65-1.26-.07-.35.07-.58.42-.68,20.15-5.39,38.28-9.6,58.13-7.7,29.61,2.83,35.23,25.3,36.14,50.84.01.29-.14.56-.39.71-10.18,6.05-17.86,15.44-24.81,24.82" vector-effect="non-scaling-stroke"/>
    <path class="cls-44" d="m205.53,293.79l-4.27-.3c-.91-.06-.93.05-.06.33,7.22,2.3,14.54,4.15,21.95,5.55.92.18,1.65.88,1.86,1.8.97,4.24-14.89,2.35-17.04,1.87-4.22-.95-8.37-2.11-12.46-3.47" vector-effect="non-scaling-stroke"/>
    <path class="cls-3" d="m195.51,299.57c-1.28-.46-1.57-1.22-.86-2.27" vector-effect="non-scaling-stroke"/>
    <path class="cls-35" d="m194.65,297.3l3.88-4.17" vector-effect="non-scaling-stroke"/>
    <path class="cls-3" d="m198.53,293.13c3.03-6.28,5.8-12.85,8.3-19.71.14-.41-.07-.85-.47-1-.08-.03-.15-.04-.24-.04-7.71-.27-16.23-.82-23.12-3.56-13.94-5.56-20.79-16.71-29.95-27.83-.3-.36-.83-.42-1.2-.12-.09.07-.16.16-.21.26-9.46,17.62-23.68,29.65-42.65,36.09-.35.12-.54.51-.42.87.05.14.14.26.27.34,6.76,4.41,14.23,7.45,22.42,9.1" vector-effect="non-scaling-stroke"/>
    <path class="cls-35" d="m131.26,287.53c.81.78.61,1.45-.52,1.58" vector-effect="non-scaling-stroke"/>
    <path class="cls-3" d="m130.74,289.11c-.71-.36-1.31-.46-1.82-.31-.41.12-.46.33-.15.62,15.13,14.31,38.43,16.97,58.05,15.94,1.06-.05,1.96-.15,2.7-.3.4-.07.68-.3.84-.67l1.36-3.16c.17-.39.46-.6.88-.64.52-.05,1.08.03,1.69.22" vector-effect="non-scaling-stroke"/>
    <path class="cls-44" d="m194.29,300.81c6.22,2.29,12.46,4.62,18.73,7,1.21.46,2.17,1,2.88,1.62.71.62.78,1.7.16,2.41-.15.17-.33.31-.53.41-1.44.72-2.85.89-4.22.52-25.29-6.81-50.57,1.55-73.04,9.47-.31.11-.64.13-.96.06-10.94-2.42-22.55-3.64-33.51-1.24-3.84.83-13.22,2.89-15.99,5.53" vector-effect="non-scaling-stroke"/>
    <path class="cls-3" d="m87.81,326.59c-2.33.49,4.44-14.48,5.02-15.57.2-.38.09-.53-.33-.46l-5.03.85" vector-effect="non-scaling-stroke"/>
    <path class="cls-11" d="m87.47,311.41c-.44.22-1.17.3-2.18.25" vector-effect="non-scaling-stroke"/>
    <path class="cls-8" d="m85.29,311.66c-.22-.83-1.02-1.44-2.4-1.83" vector-effect="non-scaling-stroke"/>
    <path class="cls-13" d="m82.89,309.83l7.36-7.31" vector-effect="non-scaling-stroke"/>
    <path class="cls-13" d="m90.25,302.52c2.94-1.76,5.66-3.8,8.16-6.13" vector-effect="non-scaling-stroke"/>
    <path class="cls-35" d="m98.41,296.39c.31-.87.11-1.44-.61-1.73-4.08-1.65-7.08-3.02-9-4.11" vector-effect="non-scaling-stroke"/>
    <path class="cls-3" d="m88.8,290.55c-.37-.61-.92-.96-1.66-1.05-.35-.05-.64.06-.87.32-3.6,3.87-6.86,8.51-9.78,13.92-17.18,31.79-14.24,68.8,9.7,96.08,2.51,2.87,5.62,5.65,9.33,8.36.27.19.43.12.5-.19.88-3.86.52-7.45-1.07-10.77" vector-effect="non-scaling-stroke"/>
    <path class="cls-8" d="m94.95,397.22c1.6-1.99,2.21-3.2,1.83-3.64" vector-effect="non-scaling-stroke"/>
    <path class="cls-3" d="m96.78,393.58c1.39-2.05,2.3-3.98,2.73-5.77.08-.33.03-.65-.15-.94-7.32-11.71-12.44-22.92-13.81-36.61-.55-5.54-.3-12.55.76-21.02.14-1.14.87-1.72,1.73-2.32" vector-effect="non-scaling-stroke"/>
    <path class="cls-44" d="m88.04,326.92c14.31-6.54,29.2-7.87,44.67-3.99.57.14,1.66-.02,2.09.76.16.29.06.65-.23.81-9.78,5.43-18.93,11.8-27.45,19.13-.05.04-.06.11-.02.16.04.05.11.06.16.02h0c5.13-3.61,10.24-7.18,15.32-10.72,4.76-3.31,9.8-6.17,15.11-8.57.32-.14.67-.16,1.01-.06l12.27,3.97c1.5.49,1.57,1.13.22,1.93-18.32,10.81-37.18,26.9-43.44,48.12-.04.13,0,.22.14.25.26.06.42-.09.52-.34,8.02-21.43,25.15-37.75,45.42-47.77.32-.16.65-.18.99-.07l17.55,5.69c.15.05.23.22.18.37-.02.06-.06.11-.11.14-16.01,10.64-27.53,20.13-37.12,36.79-.26.45-.22.49.13.1,10.95-11.99,27.9-21.83,42.48-28.84" vector-effect="non-scaling-stroke"/>
    <path class="cls-3" d="m177.93,344.8c.85,1.47,1.2,3.1,1.04,4.89-.03.37.14.56.51.56h8.71c.47,0,.85-.37.86-.84l.14-6.22" vector-effect="non-scaling-stroke"/>
    <path class="cls-44" d="m189.19,343.19c16.23,4.69,26.51,7.62,30.82,8.77,4.29,1.14,8.02,2.71,11.19,4.7.27.17.57.26.9.26,15.93.15,31.86.24,47.8.25,3.86,0,8.5-2.65,12.34-3.68,11.08-2.95,22.06-6.22,32.95-9.79" vector-effect="non-scaling-stroke"/>
    <path class="cls-3" d="m325.19,343.7l.59,5.77c.03.35.23.53.58.54l8.78.3c.37,0,.58-.17.63-.54l.68-4.81" vector-effect="non-scaling-stroke"/>
    <path class="cls-44" d="m336.45,344.96c15.28,7.67,29.06,17.81,41.33,30.43,0,0,0,0,.02,0,0,0,0,0,0-.02-9.51-16.12-22.62-28.93-39.35-38.43" vector-effect="non-scaling-stroke"/>
    <path class="cls-20" d="m338.45,336.95c4.91-3.05,10.11-5.25,15.61-6.61" vector-effect="non-scaling-stroke"/>
    <path class="cls-44" d="m354.06,330.34c22.88,9.11,41.38,24.85,49.46,48.65.05.09.16.13.25.09.07-.03.11-.11.11-.19-.65-3.26-1.86-6.57-3.61-9.94-9.33-17.88-23.25-29.36-41.58-38.6-.77-.39-1.65-1.31-2.3-1.93" vector-effect="non-scaling-stroke"/>
    <path class="cls-25" d="m356.39,328.42c3.17-1.9,6.51-3.37,10.02-4.41,8.55-2.51,35.51,16.11,43.8,21.49.06.03.13,0,.16-.06.02-.04.01-.1-.02-.13-11.85-9.09-24.84-16.71-38.97-22.86" vector-effect="non-scaling-stroke"/>
    <path class="cls-44" d="m371.38,322.45c3.05-1.48,6.18-2.2,9.39-2.15" vector-effect="non-scaling-stroke"/>
    <path class="cls-25" d="m380.77,320.3c17.46-.26,28.98.14,44.49,7.1" vector-effect="non-scaling-stroke"/>
    <path class="cls-11" d="m425.26,327.4l1.84,1.44c.26.21.45.46.56.77.83,2.29,1.27,4.68,1.3,7.17" vector-effect="non-scaling-stroke"/>
    <path class="cls-3" d="m428.96,336.78c.56,9.15.4,18.3-2.22,27.06-2.35,7.86-5.71,15.29-10.07,22.28-.36.57-.31,1.31.11,1.84l2.85,3.51c.25.31.54.35.87.13.41-.27.73-.67.96-1.19" vector-effect="non-scaling-stroke"/>
    <path class="cls-8" d="m421.46,390.41c1.73,1.36,2.01,3.13.86,5.32" vector-effect="non-scaling-stroke"/>
    <path class="cls-3" d="m422.32,395.73c-1.43,2.84-1.55,6.6-.35,11.28.04.15.2.25.36.2.04-.01.07-.03.1-.05,21.15-16.54,31.41-51.04,25.49-76.6-2.96-12.75-9.25-28.32-19.7-37.02-.25-.21-.53-.29-.85-.26-2.19.23-8.62.96-9.5-1.04" vector-effect="non-scaling-stroke"/>
    <path class="cls-44" d="m417.87,292.24c4.21-3.4,7.93-7.15,11.16-11.26.39-.49.33-.57-.2-.22-9.57,6.41-20.54,9.03-32.91,7.88" vector-effect="non-scaling-stroke"/>
    <path class="cls-19" d="m395.92,288.64c-10.48-2.86-19.12-5.34-30.16-4.79-.87.04-1.37-.31-1.52-1.04" vector-effect="non-scaling-stroke"/>
    <path class="cls-13" d="m364.24,282.81c.15,0,.24-.13.27-.36" vector-effect="non-scaling-stroke"/>
    <path class="cls-11" d="m364.51,282.45c11.36-1.18,25.73-3.86,35.75-9.62" vector-effect="non-scaling-stroke"/>
    <path class="cls-13" d="m400.26,272.83c13.61-5.09,21.74-16.06,26.82-28.83.08-.21-.02-.45-.23-.53-.06-.02-.12-.03-.18-.03l-3.24.27c-.29.02-.54-.2-.56-.5-.01-.17.06-.33.18-.43,6.31-5.2,11.58-11.3,15.82-18.31.04-.08.01-.17-.07-.22-.04-.02-.1-.03-.14,0-11.15,6.09-23.33-.3-32.15-7.63-1.6-1.33-3.06-1.44-5.04-1.55-20.99-1.11-37.32-13.27-50.63-28.66-10.52-12.17-21.31-25.08-32.46-35.95-12.26-11.95-25.36-22.92-39.31-32.89-5.75-4.11-11.75-8.81-18.59-12.37-.16-.09-.37-.03-.46.13-.07.12-.05.27.03.38,14.44,18.59,17.76,41.41,14.52,64.3-2.63,18.49-6.78,35.27-1.54,54.49.12.42.03,1.03-.27,1.82" vector-effect="non-scaling-stroke"/>
    <path class="cls-44" d="m272.76,226.32c-3.15-1.03-5.85-2.78-8.11-5.25-.27-.29-.49-.25-.67.1-3.85,7.57-7.49,15.53-10.93,23.88" vector-effect="non-scaling-stroke"/>
    <path class="cls-3" d="m253.05,245.05c-2.11-7.49-4.76-14.57-7.97-21.22-.14-.29-.35-.35-.62-.17l-5.44,3.6c-.47.3-1.09.17-1.4-.3-.18-.29-.21-.65-.07-.96,9.03-19.68,4.82-39.5,1.01-62.82-1.51-9.28-1.96-17.19-1.68-25.96.45-13.82,4.3-27.38,9.29-40.23.21-.54-.06-1.14-.59-1.35-.16-.06-.33-.08-.5-.06-13.23,1.49-21.8,4.62-34.62,11.17-.29.15-.64.11-.89-.09-19.23-15.43-38.79-28.74-61.38-38.84-5.26-2.35-25.28-9.86-27.92-4.54" vector-effect="non-scaling-stroke"/>
    <path class="cls-6" d="m253.05,245.05c-.43,7.27-2.01,14.61-4.73,22.02-3.7,10.06-16.11,12.93-16.61,24.45-.02.41.17.58.58.5l.41-.07" vector-effect="non-scaling-stroke"/>
    <path class="cls-3" d="m232.7,291.95c.07,3.45,17.9,1.47,16.36,14.38" vector-effect="non-scaling-stroke"/>
    <path class="cls-6" d="m249.06,306.33c-1.53-1.71-3.1-3.4-4.71-5.07-7.48-7.76-18.11-5.85-27.76-5.4-3.99.19-7.27-1.16-11.06-2.07" vector-effect="non-scaling-stroke"/>
    <path class="cls-40" d="m168.45,121.47c-1.06-3.25-2.48-6.38-4.27-9.38" vector-effect="non-scaling-stroke"/>
    <path class="cls-3" d="m164.18,112.09c-.78-1.9-2.35-4.33-4.72-7.3-1.27-1.6-2.64-2.26-4.11-1.97" vector-effect="non-scaling-stroke"/>
    <path class="cls-40" d="m155.35,102.82c.29-1.71-.22-3.5-1.54-5.38-9.58-13.69-20.76-25.08-33.54-34.16" vector-effect="non-scaling-stroke"/>
    <path class="cls-36" d="m155.35,102.82c-9.52-.03-18.2,2.46-26.05,7.48-1.49.95-1.36,1.3.38,1.03,3.63-.55,7.47-.94,11.54-1.15,7.54-.4,15.27.87,22.96,1.91" vector-effect="non-scaling-stroke"/>
    <path class="cls-16" d="m125.79,127.74c-.01-1.93-.38-4.48-1.11-7.67-3.57-15.69-5.57-32.41-6-50.16" vector-effect="non-scaling-stroke"/>
    <path class="cls-44" d="m311.71,294.45l-12.86,4.15c-.84.27-1.3,1.18-1.03,2.02.06.19.16.37.29.52,1.21,1.44,2.06,2.16,4.08,2.07,5.55-.27,11.01-1.27,16.37-3" vector-effect="non-scaling-stroke"/>
    <path class="cls-18" d="m336.27,296.94c.38.01.54.27.49.77-.04.32-.19.56-.46.73-.73.43-1.28,1.04-1.67,1.81" vector-effect="non-scaling-stroke"/>
    <path class="cls-5" d="m334.63,300.25l-14.14,2.36" vector-effect="non-scaling-stroke"/>
    <path class="cls-44" d="m320.49,302.61c-6.1,1.41-11.86,3.42-17.29,6.05-.81.4-1.14,1.37-.75,2.18.09.19.22.36.38.5,1.6,1.43,3.5,1.95,5.7,1.54" vector-effect="non-scaling-stroke"/>
    <path class="cls-5" d="m308.53,312.88l3.98.83" vector-effect="non-scaling-stroke"/>
    <path class="cls-44" d="m312.51,313.71c3.84,1.61,7.74,2.67,11.71,3.17" vector-effect="non-scaling-stroke"/>
    <path class="cls-31" d="m324.22,316.88l14.72,3.74" vector-effect="non-scaling-stroke"/>
    <path class="cls-37" d="m338.94,320.62l15.35,5.93" vector-effect="non-scaling-stroke"/>
    <path class="cls-28" d="m354.29,326.55c.3.83,1,1.46,2.1,1.87" vector-effect="non-scaling-stroke"/>
    <path class="cls-31" d="m354.06,330.34l-32.25-11.18" vector-effect="non-scaling-stroke"/>
    <path class="cls-44" d="m321.81,319.16c-4.74-1.82-15.02-4.73-19.65-2.08-.62.36-.83,1.14-.48,1.76.11.19.27.35.46.46,4.31,2.57,8.99,4.39,14.02,5.47" vector-effect="non-scaling-stroke"/>
    <path class="cls-28" d="m316.16,324.77l3.25,2.08" vector-effect="non-scaling-stroke"/>
    <path class="cls-31" d="m319.41,326.85c6.87,2.92,14.62,5.84,19.04,10.1" vector-effect="non-scaling-stroke"/>
    <path class="cls-6" d="m336.45,344.96c-3.94-2.46-6.82-4-11.26-1.26" vector-effect="non-scaling-stroke"/>
    <path class="cls-6" d="m189.19,343.19c-3.81-1.67-7.56-1.13-11.26,1.61" vector-effect="non-scaling-stroke"/>
    <path class="cls-6" d="m88.04,326.92c-.03-.44-.11-.55-.23-.33" vector-effect="non-scaling-stroke"/>
    <path class="cls-37" d="m252.69,326.11c-7.58,5.31-16.16,8.22-25.73,8.74-6.1.33-11.84.82-17.74-.68-3.85-.98-7.62-2.23-11.32-3.74-.31-.13-.61-.11-.9.07l-7.3,4.56c-.19.13-.25.39-.12.58.04.06.1.12.17.15,14.47,6.47,31.24,6.68,46.38,2.93,6.27-1.56,12.62-4.78,18.66-7.68.9-.43,2.56-.74,4.98-.91" vector-effect="non-scaling-stroke"/>
    <path class="cls-5" d="m259.77,330.13l9.94,4.11" vector-effect="non-scaling-stroke"/>
    <path class="cls-37" d="m269.71,334.24c15.22,6.75,36.79,8.35,51.22-.14.18-.1.24-.33.13-.51-.04-.06-.09-.11-.15-.14l-5.62-2.71c-.31-.16-.64-.19-.98-.08-4.45,1.36-9.02,3.03-13.44,3.56-12.01,1.44-24.57.06-35.02-6.47" vector-effect="non-scaling-stroke"/>
    <path class="cls-27" d="m266.22,306.55c3.11-4.57,6.73-7.59,10.84-9.04" vector-effect="non-scaling-stroke"/>
    <path class="cls-44" d="m279.79,289.44c-1.87-1.29-3.46-1.92-4.79-1.9-11.48.18-22.96.27-34.43.27-2.84,0-5.46,1.38-7.87,4.14" vector-effect="non-scaling-stroke"/>
    <path class="cls-11" d="m281.94,293.48c-4.65.79-8.78,2.3-12.41,4.53-2.49,1.52-3.59,4.37-3.31,8.54" vector-effect="non-scaling-stroke"/>
    <path class="cls-44" d="m266.22,306.55c-.43,1.18-1.1,2.43-2,3.76-.16.23-1.13,1.25-2.9,3.05-4.63,4.68-.3,11.59,4.53,14.39" vector-effect="non-scaling-stroke"/>
    <path class="cls-30" d="m265.85,327.75c-.64.74-1.83.35-3.56-1.16" vector-effect="non-scaling-stroke"/>
    <path class="cls-19" d="m262.29,326.59c-2.49-2.12-5.4-4.23-7.62-.58" vector-effect="non-scaling-stroke"/>
    <path class="cls-30" d="m254.67,326.01l-1.32.95c-.34.24-.54.15-.59-.26l-.07-.59" vector-effect="non-scaling-stroke"/>
    <path class="cls-44" d="m252.69,326.11c2.94-2.8,4.2-6.2,3.78-10.19-.04-.35-.19-.65-.45-.9-2.81-2.68-5.13-5.58-6.96-8.69" vector-effect="non-scaling-stroke"/>
    <path class="cls-45" d="m262.29,326.59c-.37.18-.67.44-.9.77-.21.31-.13.73.17.93.01,0,.03.02.05.03l8.01,4.56c.32.18.44.45.37.81-.05.21-.14.4-.28.55" vector-effect="non-scaling-stroke"/>
    <path class="cls-45" d="m259.77,330.13c.78-3.9-2-4.61-5.1-4.12" vector-effect="non-scaling-stroke"/>
    <path class="cls-44" d="m323.48,308.89c.64.73,1.21,1.19,1.72,1.38.25.09.35.27.29.54,0,.04-12.2,1.19-13.74,1.5" vector-effect="non-scaling-stroke"/>
    <path class="cls-19" d="m311.75,312.31l-3.22.57" vector-effect="non-scaling-stroke"/>
    <path class="cls-20" d="m321.81,319.16c-.09.93-.44,1.69-1.06,2.3" vector-effect="non-scaling-stroke"/>
    <path class="cls-25" d="m320.75,321.46c-1.28,1.47-2.81,2.57-4.59,3.31" vector-effect="non-scaling-stroke"/>
    <path class="cls-10" d="m408.59,293.96c.85.39,1.37.8,1.54,1.23.12.28-.02.6-.31.72-.03.01-.07.02-.1.03-4.15.83-8.31,1.09-12.5.78-19.99-1.45-43.25-2.42-60.95.22" vector-effect="non-scaling-stroke"/>
    <path class="cls-5" d="m336.27,296.94c-6.08.65-11.98,1.74-17.71,3.27" vector-effect="non-scaling-stroke"/>
    <path class="cls-19" d="m318.56,300.21c-.49-2.53-1.39-4.89-2.72-7.08" vector-effect="non-scaling-stroke"/>
    <path class="cls-41" d="m400.26,272.83c-14.18.97-30.82-4.41-36.74-18.31-1.69-3.97-3.45-7.99-5.28-12.04" vector-effect="non-scaling-stroke"/>
    <path class="cls-13" d="m358.24,242.48c4.41-7.22,10.44-12.8,18.08-16.74.24-.12.34-.41.22-.66-.07-.14-.19-.23-.34-.26-12.99-2.99-25.96-5.39-38.89-7.21-15.12-2.12-33.49,1.27-43.58,13.32-7.86,9.39-10.61,25.26-11.63,37.59-.04.5.31.94.79,1.01,10.2,1.6,19.55,12.39,25.8,20.07" vector-effect="non-scaling-stroke"/>
    <path class="cls-18" d="m308.69,289.6c-5.15,2.81-10.91,5.95-16.91,6.43-4.79.38-9.7.87-14.72,1.48" vector-effect="non-scaling-stroke"/>
    <path class="cls-41" d="m277.06,297.51c2.34-1.24,3.97-2.58,4.88-4.03" vector-effect="non-scaling-stroke"/>
    <path class="cls-13" d="m281.94,293.48c.56-1.5-.16-2.85-2.15-4.04" vector-effect="non-scaling-stroke"/>
    <path class="cls-18" d="m279.79,289.44c1.98-.83,3.02-2.35,3.12-4.56.02-.33-.08-.65-.27-.91-5.62-7.51-9.37-15.48-9.97-25.12-.49-7.7-.76-15.3.21-22.99.35-2.8,1.07-6.93-.12-9.54" vector-effect="non-scaling-stroke"/>
    <path class="cls-18" d="m418.71,295.63c-1.32.29-2.31,1.21-2.96,2.78" vector-effect="non-scaling-stroke"/>
    <path class="cls-13" d="m415.75,298.41c-1.61-.11-3.03-.11-4.24-.01-10.25.84-20.5.88-30.76.12-12.43-.93-26.01-.39-40.74,1.62" vector-effect="non-scaling-stroke"/>
    <path class="cls-10" d="m340.01,300.14c-.9-.5-2.69-.46-5.38.11" vector-effect="non-scaling-stroke"/>
    <path class="cls-21" d="m319.41,326.85l2.25-4.47c.15-.29.1-.54-.14-.75-.19-.16-.44-.22-.77-.17" vector-effect="non-scaling-stroke"/>
    <path class="cls-10" d="m364.24,282.81c-.55-.1-1.55-.04-2.99.19-16.62,2.61-31.76,5.98-45.41,10.13" vector-effect="non-scaling-stroke"/>
    <path class="cls-13" d="m315.84,293.13l-4.13,1.32" vector-effect="non-scaling-stroke"/>
    <path class="cls-18" d="m311.71,294.45c.44-.51.6-.91.49-1.19" vector-effect="non-scaling-stroke"/>
    <path class="cls-9" d="m78.14,330.95c2.77-.55,5.41-1.81,7.91-3.77.17-.14.16-.25-.05-.33-1.28-.5-2.01-1.44-2.18-2.82-.6-4.85.97-8.56,4.72-11.12.34-.24.43-.72.19-1.06-.11-.16-.28-.27-.47-.3l-.79-.14" vector-effect="non-scaling-stroke"/>
    <path class="cls-1" d="m380.22,318.22c.18.04.36.08.53.12" vector-effect="non-scaling-stroke"/>
    <path class="cls-5" d="m380.75,318.34c-19.19-5.67-37.85-9.37-57.27-9.45" vector-effect="non-scaling-stroke"/>
    <path class="cls-19" d="m323.48,308.89c-.62-2.24-1.62-4.33-2.99-6.28" vector-effect="non-scaling-stroke"/>
    <path class="cls-19" d="m312.49,313.06l.02.65" vector-effect="non-scaling-stroke"/>
    <path class="cls-20" d="m324.73,313.57c.15,1.2-.02,2.3-.51,3.31" vector-effect="non-scaling-stroke"/>
    <path class="cls-33" d="m334.72,315.41c.55,1.68,1.95,3.42,4.22,5.21" vector-effect="non-scaling-stroke"/>
    <path class="cls-6" d="m195.51,299.57c-.44.27-.85.68-1.22,1.24" vector-effect="non-scaling-stroke"/>
    <path class="cls-11" d="m358.24,242.48c-7.52,10.58-12.29,18.3-21.94,23.98" vector-effect="non-scaling-stroke"/>
    <path class="cls-13" d="m336.3,266.46c-9.85,4.55-20.81,4.7-30.47,5.13-.39.02-.51.21-.34.56,2.73,5.76,5.11,11.59,7.15,17.5.46,1.33.18,2.45-.44,3.61" vector-effect="non-scaling-stroke"/>
    <path class="cls-44" d="m312.2,293.26l-3.51-3.66" vector-effect="non-scaling-stroke"/>
    <path class="cls-46" d="m366.16,322.16c-3.88,2.3-7.84,3.76-11.87,4.39" vector-effect="non-scaling-stroke"/>
    <path class="cls-28" d="m380.75,318.34c.21.59.21,1.25.02,1.96" vector-effect="non-scaling-stroke"/>
    <path class="cls-28" d="m371.38,322.45c-1.77.67-3.51.57-5.22-.29" vector-effect="non-scaling-stroke"/>
    <path class="cls-37" d="m366.16,322.16c-10.17-2.94-20.65-5.19-31.44-6.75" vector-effect="non-scaling-stroke"/>
    <path class="cls-31" d="m334.72,315.41l-9.99-1.84" vector-effect="non-scaling-stroke"/>
    <path class="cls-44" d="m324.73,313.57c-3.89-.65-7.97-.82-12.24-.51" vector-effect="non-scaling-stroke"/>
    <path class="cls-5" d="m312.49,313.06c-.57-.29-.82-.54-.74-.75" vector-effect="non-scaling-stroke"/>
    <path class="cls-6" d="m417.87,292.24c-.51.17-.84.19-.98.08" vector-effect="non-scaling-stroke"/>
    <path class="cls-18" d="m416.89,292.32l-8.3,1.64" vector-effect="non-scaling-stroke"/>
    <path class="cls-5" d="m408.59,293.96c-4.46-1.19-8.68-2.97-12.67-5.32" vector-effect="non-scaling-stroke"/>
    <path class="cls-41" d="m364.51,282.45c-10.21-.38-20.38.04-30.52,1.25-.57.07-1.08.07-1.55.02-.32-.04-.56-.33-.52-.65,0-.04.01-.07.02-.11,1.53-5.01,3.24-9.9,5.15-14.69.35-.87.05-1.51-.79-1.81" vector-effect="non-scaling-stroke"/>
    <path class="cls-26" d="m422.32,395.73c10.2-12.93,16.94-28.32,17.53-44.72.23-6.63.2-10.97-.09-13.01-1.35-9.35-4.08-18.27-8.19-26.76" vector-effect="non-scaling-stroke"/>
    <path class="cls-6" d="m431.57,311.24l.84-.04c.32-.02.57-.29.57-.61l.03-1.51" vector-effect="non-scaling-stroke"/>
    <path class="cls-9" d="m433.01,309.08c.55-1.71-.09-6.61.39-7.13.23-.25.29-.54.16-.86-1.11-2.73-6.64-4.34-9.32-4.58" vector-effect="non-scaling-stroke"/>
    <path class="cls-6" d="m424.24,296.51l-5.53-.88" vector-effect="non-scaling-stroke"/>
    <path class="cls-7" d="m418.71,295.63l-3.56-.74c-.25-.05-.42-.3-.37-.55.02-.1.07-.19.15-.26l1.96-1.76" vector-effect="non-scaling-stroke"/>
    <path class="cls-27" d="m424.24,296.51c3.44,3.65,6.52,5.25,7.4,10.75.05.31.2.55.45.74.37.27.68.63.92,1.08" vector-effect="non-scaling-stroke"/>
    <path class="cls-17" d="m431.57,311.24c-.63-.57-1.36-.96-2.19-1.18" vector-effect="non-scaling-stroke"/>
    <path class="cls-44" d="m429.38,310.06c-4.31-4.42-8.86-8.3-13.63-11.65" vector-effect="non-scaling-stroke"/>
    <path class="cls-8" d="m429.38,310.06c-.69-.17-1.37.25-2.03,1.24" vector-effect="non-scaling-stroke"/>
    <path class="cls-3" d="m427.35,311.3l-6.63-.34c-.45-.03-.58.16-.39.57l2.61,5.73" vector-effect="non-scaling-stroke"/>
    <path class="cls-11" d="m422.94,317.26c.59,1.44,4.19,8.71,2.58,9.53" vector-effect="non-scaling-stroke"/>
    <path class="cls-25" d="m425.52,326.79c-8.37-3.73-17.05-6.21-26.04-7.44-5.53-.76-12.67-.6-19.26-1.13" vector-effect="non-scaling-stroke"/>
    <path class="cls-19" d="m380.22,318.22c5.67-4.12,10.56-8.38,14.68-12.79.22-.25.2-.63-.04-.85-.1-.09-.22-.14-.35-.15l-54.5-4.29" vector-effect="non-scaling-stroke"/>
    <path class="cls-39" d="m85.29,311.66l-7.15,19.29" vector-effect="non-scaling-stroke"/>
    <path class="cls-26" d="m78.14,330.95c-.97,8.61-1.17,15.78-.62,21.49,1.49,15.29,7.91,29.01,19.26,41.14" vector-effect="non-scaling-stroke"/>
    <path class="cls-12" d="m194.65,297.3c-14.83-2.9-29.7-4.68-44.59-5.34-4.5-.2-11.66-.97-19.32-2.85" vector-effect="non-scaling-stroke"/>
    <path class="cls-26" d="m421.46,390.41c11.71-15.04,16.73-32.2,15.04-51.47-.29-3.23-.8-6.08-1.54-8.56" vector-effect="non-scaling-stroke"/>
    <path class="cls-39" d="m434.96,330.38l-4.58-13.9" vector-effect="non-scaling-stroke"/>
    <path class="cls-26" d="m430.38,316.48c-.55-2.1-1.56-3.83-3.03-5.18" vector-effect="non-scaling-stroke"/>
    <path class="cls-9" d="m434.96,330.38l-4.01,1.2c-.36.11-.59.34-.7.7l-1.29,4.5" vector-effect="non-scaling-stroke"/>
    <path class="cls-32" d="m425.26,327.4c-.04-.16.05-.36.26-.61" vector-effect="non-scaling-stroke"/>
    <path class="cls-9" d="m430.38,316.48c-1.09.05-2.28.58-3.57,1.59-.34.27-.82.24-1.13-.06l-1.39-1.32c-.25-.24-.61-.3-.92-.15-.26.13-.4.37-.43.72" vector-effect="non-scaling-stroke"/>
    <path class="cls-29" d="m82.89,309.83c-.67.82-1.11,1.64-1.33,2.47" vector-effect="non-scaling-stroke"/>
    <path class="cls-12" d="m88.8,290.55l5.79,5.03" vector-effect="non-scaling-stroke"/>
    <path class="cls-7" d="m94.59,295.58c-2.89.46-8.24.01-9.09,3.03" vector-effect="non-scaling-stroke"/>
    <path class="cls-6" d="m85.5,298.61l-1.13,1.43" vector-effect="non-scaling-stroke"/>
    <path class="cls-7" d="m84.37,300.04c-1.99,3.07-3.51,6.62-4.56,10.67-.16.64.23,1.29.87,1.45.03,0,.07.02.1.02l.78.12" vector-effect="non-scaling-stroke"/>
    <path class="cls-26" d="m81.56,312.3c-13.8,28.64-8.27,62.06,13.39,84.92" vector-effect="non-scaling-stroke"/>
    <path class="cls-12" d="m198.53,293.13c-24.45-3.46-43.66-4.32-65.69-5.83-.33-.03-.64.02-.94.13-.21.07-.42.11-.64.1" vector-effect="non-scaling-stroke"/>
    <path class="cls-18" d="m90.25,302.52c-.61-3-2.19-4.3-4.75-3.91" vector-effect="non-scaling-stroke"/>
    <path class="cls-18" d="m90.25,302.52c-1.11.93-2.29,1.44-3.53,1.53-.33.02-.64.2-.82.48l-1.97,2.97c-.13.2-.37.29-.6.23-1.74-.48,1.07-3.9,1.96-4.45.28-.18.38-.53.24-.82l-1.16-2.42" vector-effect="non-scaling-stroke"/>
    <path class="cls-42" d="m98.41,296.39l-3.82-.81" vector-effect="non-scaling-stroke"/>
    <path class="cls-22" d="m176.41,253.38c12.82,13.77,32.46,11.26,45.71-.4.23-.21.35-.48.35-.8-.02-1.33-.26-2.52-.72-3.55" vector-effect="non-scaling-stroke"/>
    <path class="cls-30" d="m221.75,248.63c-1.73-9.38-6.7-15.96-14.92-19.75-.38-.17-.64-.06-.77.33-.34.99-.35,2.24-.02,3.75" vector-effect="non-scaling-stroke"/>
    <path class="cls-22" d="m206.04,232.96c0,7.07-.13,17.71-4.66,23.1-.18.21-.5.23-.7.05-.02-.02-.04-.04-.06-.06-4.2-5.22-3.05-21.19-2.75-28.16" vector-effect="non-scaling-stroke"/>
    <path class="cls-30" d="m197.87,227.89c1.76-1.17,4.27-.05,6.19.32.09.02.15-.01.17-.1.03-.09.03-.19,0-.28-.01-.05-.05-.09-.1-.11-5.95-2.09-12.08-2.99-18.37-2.69" vector-effect="non-scaling-stroke"/>
    <path class="cls-22" d="m185.76,225.03l-1.44-.07" vector-effect="non-scaling-stroke"/>
    <path class="cls-11" d="m184.32,224.96c-6.24.15-12.04,1.18-17.4,3.09-.85.31-1.16.89-.93,1.76,2.24,8.68,5.71,16.54,10.42,23.57" vector-effect="non-scaling-stroke"/>
    <path class="cls-34" d="m184.32,224.96c-.71,1.59-1.68,2.9-2.91,3.94-.25.22-.55.35-.88.4-3.35.46-5.02,2.44-5.03,5.95-.01,4.5-.12,9.02-.31,13.55-.01.33.09.62.31.87,1.23,1.36,1.54,2.6.91,3.71" vector-effect="non-scaling-stroke"/>
    <path class="cls-2" d="m185.76,225.03l-2.93,3.83c-.19.26-.14.62.12.81.14.1.31.14.48.1,4.67-1.19,9.48-1.81,14.44-1.88" vector-effect="non-scaling-stroke"/>
    <path class="cls-2" d="m206.04,232.96c3.09.27,13.39,13.27,15.71,15.67" vector-effect="non-scaling-stroke"/>
    <path class="cls-24" d="m165.51,365.96c-5.38,4.98-1.99,14.2.17,21.64" vector-effect="non-scaling-stroke"/>
    <path class="cls-25" d="m165.68,387.6l10.11,39.15" vector-effect="non-scaling-stroke"/>
    <path class="cls-20" d="m175.79,426.75l8.06,30.23" vector-effect="non-scaling-stroke"/>
    <path class="cls-30" d="m183.85,456.98c2.72,7.96,7.42,9.69,15.8,9.77,40.39.37,80.79.37,121.19-.02,4.4-.05,7.55-.55,9.45-1.52,3.14-1.61,5.28-4.28,6.42-8.03,1.81-5.96,4.4-15.89,7.77-29.8" vector-effect="non-scaling-stroke"/>
    <path class="cls-20" d="m344.48,427.38l11.26-43.83" vector-effect="non-scaling-stroke"/>
    <path class="cls-25" d="m355.74,383.55c1.04-4.86,2.68-9.02.36-14.11" vector-effect="non-scaling-stroke"/>
    <path class="cls-44" d="m356.1,369.44c-2.67-5.11-6.78-7.66-12.35-7.67-55.61-.05-111.21-.04-166.81.02-5.01,0-8.82,1.4-11.43,4.17" vector-effect="non-scaling-stroke"/>
    <path class="cls-28" d="m356.1,369.44l-.15.52c-.09.32-.42.5-.74.41-.11-.03-.2-.09-.28-.17-1.89-2.03-4.01-3.79-6.36-5.27-.28-.18-.6-.28-.94-.31l-6.01-.44" vector-effect="non-scaling-stroke"/>
    <path class="cls-38" d="m341.62,364.18c-8.61.21-17.44.34-26.47.41-31.16.21-53.54-.01-93.65.26-15.52.11-31.13-.38-46.69-.29-1.6,0-4.7.47-9.3,1.4" vector-effect="non-scaling-stroke"/>
    <path class="cls-4" d="m341.62,364.18c-6.56,7.43-13.11,14.97-19.66,22.64-3.48,4.07-6.03,5.65-10.95,6.96-6.31,1.67-19.68,5.48-24.75,3.53-.49-.18-1.04.07-1.22.57-.13.37-.03.77.26,1.03,2.15,1.88,3.24,4.23,3.27,7.04" vector-effect="non-scaling-stroke"/>
    <path class="cls-24" d="m288.57,405.95c-2.27-3.52-10.66-17.83-14.39-18.14-4.48-.36-13.41-.44-26.8-.23-.34,0-.64.12-.89.34l-1.97,1.68" vector-effect="non-scaling-stroke"/>
    <path class="cls-4" d="m244.52,389.6c-21.16.39-42.06-.34-62.69-2.19-4.68-.42-9.24-2.22-14.14-2.97-.32-.05-.47.09-.45.41.09,1.63-.43,2.54-1.56,2.75" vector-effect="non-scaling-stroke"/>
    <path class="cls-21" d="m355.74,383.55c-1.41.33-2.8.69-4.19,1.07-4.75,1.3-7.01,4.66-12.37,5.35-3.21.42-6.16,1.83-9.05,2.35-4.13.76-9.25,1.2-12.58,3.89-6.08,4.93-11.75,13.17-18.49,21.6-1.01,1.26-2.49,5.44-4.15,3.2" vector-effect="non-scaling-stroke"/>
    <path class="cls-25" d="m294.91,421.01c1.06-1.31,1.24-2.54.53-3.7-2.38-3.9-4.67-7.69-6.87-11.36" vector-effect="non-scaling-stroke"/>
    <path class="cls-25" d="m244.52,389.6c-4.43,6.29-9.8,14.48-16.11,24.57-1.1,1.75-1.85,3.38-2.25,4.89-.09.35-.03.68.18.97l3.78,5.31" vector-effect="non-scaling-stroke"/>
    <path class="cls-33" d="m344.48,427.38c-2.26.92-17.65,8.31-18.34,8.18-.32-.05-.64-.04-.97.03-12.86,2.87-25.63,7.39-37.98,10.07-16.24,3.51-31.67,6.66-48.35,7.53-4,.21-7.99,1.8-12.34,1.82-7.01.01-14.01.24-21,.68-3.18.2-6.35.06-9.52-.42-4.06-.61-8.1,1.04-12.13,1.71" vector-effect="non-scaling-stroke"/>
    <path class="cls-21" d="m175.79,426.75c8.01-1.14,16.26-2.83,24.59-1.8,9.07,1.12,16.16,1.4,24.62,1.28.43,0,.77-.36.78-.79,0-.32-.09-.46-.3-.43-.11.02-.22-.06-.24-.18,0-.03,0-.06,0-.09.68-2.29,3.92,3.76,4.87.6" vector-effect="non-scaling-stroke"/>
    <path class="cls-20" d="m230.12,425.34l9.77,11.87c.21.27.49.4.83.41,12.87.38,25.75.37,38.62-.04,3.37-.11,13.21-13.54,15.57-16.57" vector-effect="non-scaling-stroke"/>
    <path class="cls-47" d="m206,478.93c17.76.44,50.58.79,76.35.76,10.69-.01,22.87.29,34.33-.01,3.23-.08,4.73-.62,6.9-2.78.19-.19.18-.5-.01-.69-.09-.08-.2-.13-.32-.14-39.2-.88-78.54-.42-117.75-.29-1.57,0-3,.13-4.29.36-.49.09-.58.33-.27.72,1.06,1.32,2.75,2.01,5.06,2.07" vector-effect="non-scaling-stroke"/>
    <path class="cls-22" d="m293.91,245.4l-2.2,7.42c-.1.33,0,.69.28.91,20.48,16.78,49.7,8.84,53.72-19.11" vector-effect="non-scaling-stroke"/>
    <path class="cls-24" d="m345.71,234.62l.76-5.43c.05-.33-.07-.6-.35-.79-.64-.43-1.41-.66-2.32-.67" vector-effect="non-scaling-stroke"/>
    <path class="cls-22" d="m343.8,227.73l-1.97-.64" vector-effect="non-scaling-stroke"/>
    <path class="cls-30" d="m341.83,227.09c-19.52-5.03-39.1-.94-47.92,18.31" vector-effect="non-scaling-stroke"/>
    <path class="cls-2" d="m341.83,227.09l.15,2.05c.03.28-.18.53-.47.55-.06,0-.11,0-.17-.01-7.38-1.79-14.71-2.59-21.98-2.4" vector-effect="non-scaling-stroke"/>
    <path class="cls-30" d="m319.36,227.28c-2.27.24-4.37.5-6.3.78-1.2.18-1.68,1-1.43,2.45" vector-effect="non-scaling-stroke"/>
    <path class="cls-2" d="m311.63,230.51c-4.27,6.21-8.59,11.78-12.97,16.73-.25.27-.53.33-.85.16l-3.9-2" vector-effect="non-scaling-stroke"/>
    <path class="cls-15" d="m343.8,227.73l-.29.41c-.13.17-.17.37-.12.59l1.13,5.8c.06.32.37.54.7.49.17-.03.34-.16.49-.4" vector-effect="non-scaling-stroke"/>
    <path class="cls-22" d="m311.63,230.51c-.1,8.05-1.06,21.5,4.27,25.94.25.21.5.2.75-.02,4.88-4.47,3.36-20.79,2.71-29.15" vector-effect="non-scaling-stroke"/>
    <path class="cls-31" d="m188.43,312.51c-.49.06-.98.01-1.47-.14" vector-effect="non-scaling-stroke"/>
    <path class="cls-44" d="m186.96,312.37c-15.55,1.12-30.55,4.71-45.02,10.76-.44.19-.44.37,0,.56,4.05,1.68,8.87,3.59,13.21,4.09.35.04.71-.02,1.03-.18,9.87-4.9,20.18-8.63,30.91-11.19.39-.09.6-.34.63-.73.06-.68-.05-1.41-.34-2.19" vector-effect="non-scaling-stroke"/>
    <path class="cls-31" d="m187.38,313.49c.31-.26.75-.33,1.31-.22" vector-effect="non-scaling-stroke"/>
    <path class="cls-44" d="m188.69,313.27l.63,1.79c.11.32.34.47.67.45,4.86-.23,9.68-.81,14.45-1.75.19-.03.32-.21.29-.4-.03-.15-.14-.26-.29-.29-5.26-1.08-10.6-1.27-16.01-.56" vector-effect="non-scaling-stroke"/>
    <path class="cls-20" d="m188.69,313.27l-.26-.76" vector-effect="non-scaling-stroke"/>
    <path class="cls-20" d="m186.96,312.37l.42,1.12" vector-effect="non-scaling-stroke"/>
    <path class="cls-28" d="m193.95,325.79c1.34-.45,2.47-1.16,3.38-2.13" vector-effect="non-scaling-stroke"/>
    <path class="cls-44" d="m197.33,323.66l13.42-4.43c.66-.22,1.02-.94.8-1.61-.15-.45-.55-.78-1.02-.85-15.4-2.17-34.02,3.55-47.95,9.83-1.44.65-2.61,1.29-3.5,1.92-.23.17-.28.48-.11.71.06.08.14.14.23.18l14.56,5.15c.49.17.98.15,1.45-.06l18.74-8.71" vector-effect="non-scaling-stroke"/>
    <path class="cls-25" d="m197.33,323.66c-1.91-.92-3.77-2.39-5.56-4.4-.27-.29-.72-.3-1-.04-.24.22-.3.58-.14.87l3.32,5.7" vector-effect="non-scaling-stroke"/>
    <path class="cls-24" d="m250.4,393.04c-2.6,2.35-5.01,5.5-7.24,9.47" vector-effect="non-scaling-stroke"/>
    <path class="cls-25" d="m243.16,402.51l-9.79,15.16c-.35.55-.34,1.26.03,1.79,1.58,2.3,8.49,12.75,11.16,12.76,10.45.05,20.9.05,31.35,0,3.84-.01,8.43-7.35,11.35-11.19.57-.74.97-1.43,1.22-2.06.13-.33.11-.65-.07-.96-4.41-7.55-9.2-14.91-14.38-22.07" vector-effect="non-scaling-stroke"/>
    <path class="cls-24" d="m274.03,395.94c-2.24-4.03-7.69-2.98-11.53-2.9" vector-effect="non-scaling-stroke"/>
    <path class="cls-25" d="m262.5,393.04h-12.1" vector-effect="non-scaling-stroke"/>
    <path class="cls-4" d="m262.5,393.04c-1.22.29-1.64,1.04-1.27,2.25.12.39-.02.63-.42.72-3.1.72-4.12,1.49-3.06,2.31" vector-effect="non-scaling-stroke"/>
    <path class="cls-25" d="m257.75,398.32c-1.28,1.15-2.27,2.53-2.96,4.16" vector-effect="non-scaling-stroke"/>
    <path class="cls-4" d="m254.79,402.48l-.04-.47c-.02-.27-.17-.42-.44-.44l-2.79-.24c-.29-.02-.54.19-.56.47,0,.06,0,.11.02.17l.8,3.16c.17.72.89,1.16,1.61.99.54-.13.94-.57,1.02-1.11l.24-1.5" vector-effect="non-scaling-stroke"/>
    <path class="cls-25" d="m254.65,403.51c.16,2.26.89,4.46,2.2,6.61.17.28.12.64-.12.86l-9.14,8.43c-.3.28-.44.69-.37,1.09.65,3.99,2.66,7.92,7.4,7.18.49-.07.66-.35.5-.82l-1.15-3.38c-.42-1.21-.13-2.23.86-3.04l6.23-5.13c.25-.2.61-.2.86,0l5.76,4.66c.64.51.86,1.38.56,2.15l-1.81,4.56c-.16.39-.04.65.36.79,4.06,1.43,5.9-1.05,7.37-4.31.97-2.17.45-4.14-1.57-5.92-2.21-1.95-4.46-3.86-6.77-5.72-.51-.41-.64-1.13-.31-1.69l3.08-5.26" vector-effect="non-scaling-stroke"/>
    <path class="cls-4" d="m268.59,404.57c1.38.27,2.19-.32,2.43-1.75.06-.32-.04-.65-.26-.9l-.73-.82c-.33-.37-.27-.65.18-.85,1.89-.81,3.16-2.24,3.82-4.31" vector-effect="non-scaling-stroke"/>
    <path class="cls-4" d="m243.16,402.51c.28.64.77,1.13,1.47,1.46.49.23.73.07.73-.46v-1.04c0-.39.2-.61.59-.65l.87-.09c.29-.03.5.09.64.34.48.84,1.14,1.53,1.98,2.07.15.09.35.04.44-.11.06-.1.06-.23,0-.33-1.17-1.79-.86-3.18.93-4.18.29-.16.53-.39.69-.68,1.33-2.32,3.35-3.72,6.08-4.19.36-.07.49-.27.4-.62-.3-1.08-6.54-.89-7.58-.99" vector-effect="non-scaling-stroke"/>
    <path class="cls-24" d="m268.59,404.57c-1.31-6.15-4.93-8.23-10.84-6.25" vector-effect="non-scaling-stroke"/>
    <path class="cls-24" d="m254.65,403.51l.14-1.03" vector-effect="non-scaling-stroke"/>
    <path class="cls-25" d="m261.28,405.73c.78.21,1.65-.5,1.95-1.6t0,0c.3-1.1-.09-2.16-.86-2.37,0,0,0,0,0,0-.78-.21-1.65.5-1.95,1.6,0,0,0,0,0,0-.3,1.1.09,2.16.86,2.37h0" vector-effect="non-scaling-stroke"/>
  </g>
  <path class="cls-60" d="m353.49,430.39c.46-1.43,1.84-8.53,3.02-8.81,18.32-.03,36.65-.14,54.98-.32,1.62-.01,3.72-.22,5-.52,5.08-1.2,3.89-9.57-2.7-9.64-16.01-.15-32-.31-47.98-.48-1.77-.02-4.32.43-6.56-.27-.13-1.36.03-2.44.48-3.24,15.04-.05,30.07-.11,45.09-.17,1.58,0,3.03-.71,4.35-2.1,4.41-4.65,1.41-12.2-3.42-14.82-1.54-.84-3.63-1.26-6.28-1.26-11.71-.03-23.41-.03-35.1,0-.33,0-.54.16-.62.49l-4.6,17.48-.86,3.52-2.89,10.99-2.44,9.14c-3.87,16.43-6.61,27.22-8.22,32.36-1.26,4.03-4.12,7.43-8.58,10.2-.29.19-.35.43-.17.72.41.67.3,1.26-.33,1.77-.25.2-.39.49-.4.8-.29,8.28-5.43,12.98-13.41,13.11-46.78.74-79.15.07-117.98-.1-3.39-.01-5.91-.4-7.56-1.16-6.18-2.84-6.45-6.95-7.98-13.07-.08-.33-.27-.56-.58-.69-6.33-2.77-10.33-7.37-12-13.81-2.63-10.14-5.28-20.27-7.97-30.38l-4.98-19.9-1.17-3.99-4.55-16.77c-.11-.43-.5-.72-.94-.72h-39.8c-2.51,0-4.38.23-5.59.7-6.63,2.54-6.99,10.93-2.73,15.93.2.24.47.42.78.5,2.68.77,5.58,1.14,8.7,1.11,11.71-.11,25.96-.03,42.77.25,1.33-.4,1.8.71,1.41,3.33-.75.17-1.64.26-2.68.25-18.75-.18-37.5-.11-56.25.21-4.99.08-8.33,5.82-3.79,8.99,2.28,1.59,8.67,1.54,10.8,1.52,18.14-.12,36.31-.09,54.52.08.32,0,.59.22.66.53l1.92,8.37h-70.27c-.37,0-.59-.19-.66-.55l-.61-2.95c-.08-.35-.28-.67-.57-.88-41.63-30.46-56.23-87.19-26.27-131.21,3.29-4.83,6.79-9.53,10.5-14.1.72-.89.69-2.17-.07-3.03-3.69-4.19-6.93-8.7-9.73-13.52-.22-.38-.09-.86.29-1.08.16-.1.36-.13.54-.1,4.38.76,8.76.9,13.15.43.28-.03.29-.11.03-.22-9.69-4.12-17.32-10.63-22.91-19.52-.13-.22-.07-.5.15-.63.08-.05.18-.08.28-.07l9.52.91c.49.04.92-.32.96-.81.02-.22-.04-.44-.17-.61-6.31-8.39-10.43-17.77-12.34-28.14-.06-.3.15-.59.45-.64.04,0,.08-.01.12,0l24.55.7c.34,0,.63-.1.88-.33,9.82-8.96,17.2-14.37,20.34-27.97,2.36-10.22,3.26-18.95,2.71-26.2-.37-4.85-.39-9.64-.87-13.64-1.24-10.47-2.21-20.96-2.92-31.47-.59-8.62-.17-18.37-.45-27.61-.06-1.63.52-3.45.53-5.02.02-8.59,1.21-16.98,3.56-25.19,2.63-9.17,8.83-9.33,17.39-8.82,10.05.61,20.77,4.14,30.03,8.01,15.53,6.51,29.87,14.98,43.02,25.42,2.89,2.29,6.54,5.75,9.92,8.35.72.55,1.66.73,2.53.47,8.46-2.49,17.11-4.79,25.83-5.78,5.39-.62,9.62-.86,12.7-.71,4.9.24,10.23-.08,13.66.1,12.25.64,22.7,3.07,33.96,5.38,2.56.52,4.18-.58,5.93-2.18,20.55-18.8,46.44-36.85,74.45-41.8,5.98-1.05,15.56-1.82,20.73,1.66,9.59,6.47,10.62,29.44,10.71,40.46.07,9.93.29,20.07-.59,29.82-1.69,18.78-4.29,37.45-7.79,56-2.6,13.77,6.06,26.68,16.39,35.36,10.43,8.77,18.24,7.32,30.41,3.46.37-.12.77.09.89.47.02.06.03.12.03.18.75,18.88-5.51,38.08-19.87,51.04-.99.89-.99,1.79,0,2.68,4.82,4.35,12.59,3.96,18.65,3.23.67-.09,1.28.39,1.36,1.06.04.29-.03.58-.19.83l-7.71,11.91c-.18.28-.18.55,0,.82,3.36,4.98,7.24,10.23,9.94,14.96,23.35,40.8,12.02,91.48-22.89,122.15-2.53,2.22-4.29,3.77-5.29,4.64-.26.23-.37.59-.28.92.97,3.86-1.55,3.34-3.97,3.37-21.33.22-42.68.18-64.04-.13Zm29.81-302.01c-4.49.69-9.76-.03-13.04.12-10.47.47-20.38,3.11-29.73,7.93-.1.05-.35.17-.38.31-.07.27.02.35.28.23,14.44-6.66,29.06-8.85,44.73-6.67,1.59.25,2.76.76,3.51,1.51.68.69.54.97-.42.85l-11.94-1.54c-.2-.03-.38.11-.4.31-.01.1.02.2.08.28,4.83,5.93,9.18,12.2,13.05,18.79.14.24.45.33.7.19.12-.07.21-.19.24-.34,4.56-21.19,7.03-44.11,5.38-65.82-.62-8.06-1.01-17.33-4.08-24.87-.14-.34-.54-.5-.88-.36-.12.05-.22.13-.29.24-9.3,13.7-18.19,27.67-26.66,41.9-.47.79-.25,1.28.66,1.45,10.74,2,19.58,3.88,28.9,9.8,2.03,1.29,1.9,1.56-.39.82-9.17-2.96-22.89-5.78-33.01-3.75-.33.07-.59.25-.77.54l-4.83,7.88c-.27.45-.15.69.37.72,10.25.76,19.89,3.92,28.92,9.48Zm-80.97-17.75c21.91-22.46,43.08-41.56,73.89-50.89,1.19-.36,1.17-.43-.05-.22-28.57,5.04-57.02,28.46-74.2,50.87-.03.03-.03.07-.02.11.09.22.17.34.38.13ZM120.27,63.28c-1.53,2.68-2.06,4.89-1.59,6.63-1.19,6.49-1.91,12.89-2.16,19.2-.55,14.47-.35,29.37,3.08,43.45.25,1.01.87,1.37,1.86,1.06,5.86-1.82,11.52-4.12,16.99-6.91.11-.06.14-.19.09-.3-.04-.08-.13-.13-.23-.11-4.05.71-8.07,1.61-12.06,2.72-.36.1-.75-.03-.95-.34-.11-.15.06-.47.49-.94,14.34-6.34,26.9-6.76,42.66-6.27,1.32.05,2.19.46,2.61,1.21,2.22,4,4.4,8.19,6.55,12.56.12.24.01.54-.23.65-.14.06-.29.06-.43,0-14.57-7.38-37.57-10.25-51.48.67-.49.39-.43.6.19.65,6.37.5,13.66.27,19.07,1.09,10.22,1.56,18.79,4.5,26.64,11.57.24.22.25.58.04.82-.13.15-.33.21-.53.18-16.09-3.02-32.03-2.1-47.83,2.76-1.61.49-2.36,1.86-2.27,4.11.18,4.47-.06,10.41-.72,17.82-1.35,15.22-7.12,26.03-16.75,37.74-8.11,9.86-18.15,17.03-30.12,21.5-.32.12-.36.3-.11.54,5.53,5.29,11.81,9.47,18.82,12.54,19.86,8.7,36-2.61,46.66-19.06.34-.53.2-1.23-.33-1.58-.16-.11-.35-.17-.54-.18-.95-.07-1.5-.49-1.65-1.26-.07-.35.07-.58.42-.68,20.15-5.39,38.28-9.6,58.13-7.7,29.61,2.83,35.23,25.3,36.14,50.84.01.29-.14.56-.39.71-10.18,6.05-17.86,15.44-24.81,24.82l-4.27-.3c-.91-.06-.93.05-.06.33,7.22,2.3,14.54,4.15,21.95,5.55.92.18,1.65.88,1.86,1.8.97,4.24-14.89,2.35-17.04,1.87-4.22-.95-8.37-2.11-12.46-3.47-1.28-.46-1.57-1.22-.86-2.27l3.88-4.17c3.03-6.28,5.8-12.85,8.3-19.71.14-.41-.07-.85-.47-1-.08-.03-.15-.04-.24-.04-7.71-.27-16.23-.82-23.12-3.56-13.94-5.56-20.79-16.71-29.95-27.83-.3-.36-.83-.42-1.2-.12-.09.07-.16.16-.21.26-9.46,17.62-23.68,29.65-42.65,36.09-.35.12-.54.51-.42.87.05.14.14.26.27.34,6.76,4.41,14.23,7.45,22.42,9.1.81.78.61,1.45-.52,1.58-.71-.36-1.31-.46-1.82-.31-.41.12-.46.33-.15.62,15.13,14.31,38.43,16.97,58.05,15.94,1.06-.05,1.96-.15,2.7-.3.4-.07.68-.3.84-.67l1.36-3.16c.17-.39.46-.6.88-.64.52-.05,1.08.03,1.69.22,6.22,2.29,12.46,4.62,18.73,7,1.21.46,2.17,1,2.88,1.62.71.62.78,1.7.16,2.41-.15.17-.33.31-.53.41-1.44.72-2.85.89-4.22.52-25.29-6.81-50.57,1.55-73.04,9.47-.31.11-.64.13-.96.06-10.94-2.42-22.55-3.64-33.51-1.24-3.84.83-13.22,2.89-15.99,5.53-2.33.49,4.44-14.48,5.02-15.57.2-.38.09-.53-.33-.46l-5.03.85c-.44.22-1.17.3-2.18.25-.22-.83-1.02-1.44-2.4-1.83l7.36-7.31c2.94-1.76,5.66-3.8,8.16-6.13.31-.87.11-1.44-.61-1.73-4.08-1.65-7.08-3.02-9-4.11-.37-.61-.92-.96-1.66-1.05-.35-.05-.64.06-.87.32-3.6,3.87-6.86,8.51-9.78,13.92-17.18,31.79-14.24,68.8,9.7,96.08,2.51,2.87,5.62,5.65,9.33,8.36.27.19.43.12.5-.19.88-3.86.52-7.45-1.07-10.77,1.6-1.99,2.21-3.2,1.83-3.64,1.39-2.05,2.3-3.98,2.73-5.77.08-.33.03-.65-.15-.94-7.32-11.71-12.44-22.92-13.81-36.61-.55-5.54-.3-12.55.76-21.02.14-1.14.87-1.72,1.73-2.32,14.31-6.54,29.2-7.87,44.67-3.99.57.14,1.66-.02,2.09.76.16.29.06.65-.23.81-9.78,5.43-18.93,11.8-27.45,19.13-.05.04-.06.11-.02.16.04.05.11.06.16.02h0c5.13-3.61,10.24-7.18,15.32-10.72,4.76-3.31,9.8-6.17,15.11-8.57.32-.14.67-.16,1.01-.06l12.27,3.97c1.5.49,1.57,1.13.22,1.93-18.32,10.81-37.18,26.9-43.44,48.12-.04.13,0,.22.14.25.26.06.42-.09.52-.34,8.02-21.43,25.15-37.75,45.42-47.77.32-.16.65-.18.99-.07l17.55,5.69c.15.05.23.22.18.37-.02.06-.06.11-.11.14-16.01,10.64-27.53,20.13-37.12,36.79-.26.45-.22.49.13.1,10.95-11.99,27.9-21.83,42.48-28.84.85,1.47,1.2,3.1,1.04,4.89-.03.37.14.56.51.56h8.71c.47,0,.85-.37.86-.84l.14-6.22c16.23,4.69,26.51,7.62,30.82,8.77,4.29,1.14,8.02,2.71,11.19,4.7.27.17.57.26.9.26,15.93.15,31.86.24,47.8.25,3.86,0,8.5-2.65,12.34-3.68,11.08-2.95,22.06-6.22,32.95-9.79l.59,5.77c.03.35.23.53.58.54l8.78.3c.37,0,.58-.17.63-.54l.68-4.81c15.28,7.67,29.06,17.81,41.33,30.43,0,0,0,0,.02,0,0,0,0,0,0-.02-9.51-16.12-22.62-28.93-39.35-38.43,4.91-3.05,10.11-5.25,15.61-6.61,22.88,9.11,41.38,24.85,49.46,48.65.05.09.16.13.25.09.07-.03.11-.11.11-.19-.65-3.26-1.86-6.57-3.61-9.94-9.33-17.88-23.25-29.36-41.58-38.6-.77-.39-1.65-1.31-2.3-1.93,3.17-1.9,6.51-3.37,10.02-4.41,8.55-2.51,35.51,16.11,43.8,21.49.06.03.13,0,.16-.06.02-.04.01-.1-.02-.13-11.85-9.09-24.84-16.71-38.97-22.86,3.05-1.48,6.18-2.2,9.39-2.15,17.46-.26,28.98.14,44.49,7.1l1.84,1.44c.26.21.45.46.56.77.83,2.29,1.27,4.68,1.3,7.17.56,9.15.4,18.3-2.22,27.06-2.35,7.86-5.71,15.29-10.07,22.28-.36.57-.31,1.31.11,1.84l2.85,3.51c.25.31.54.35.87.13.41-.27.73-.67.96-1.19,1.73,1.36,2.01,3.13.86,5.32-1.43,2.84-1.55,6.6-.35,11.28.04.15.2.25.36.2.04-.01.07-.03.1-.05,21.15-16.54,31.41-51.04,25.49-76.6-2.96-12.75-9.25-28.32-19.7-37.02-.25-.21-.53-.29-.85-.26-2.19.23-8.62.96-9.5-1.04,4.21-3.4,7.93-7.15,11.16-11.26.39-.49.33-.57-.2-.22-9.57,6.41-20.54,9.03-32.91,7.88-10.48-2.86-19.12-5.34-30.16-4.79-.87.04-1.37-.31-1.52-1.04.15,0,.24-.13.27-.36,11.36-1.18,25.73-3.86,35.75-9.62,13.61-5.09,21.74-16.06,26.82-28.83.08-.21-.02-.45-.23-.53-.06-.02-.12-.03-.18-.03l-3.24.27c-.29.02-.54-.2-.56-.5-.01-.17.06-.33.18-.43,6.31-5.2,11.58-11.3,15.82-18.31.04-.08.01-.17-.07-.22-.04-.02-.1-.03-.14,0-11.15,6.09-23.33-.3-32.15-7.63-1.6-1.33-3.06-1.44-5.04-1.55-20.99-1.11-37.32-13.27-50.63-28.66-10.52-12.17-21.31-25.08-32.46-35.95-12.26-11.95-25.36-22.92-39.31-32.89-5.75-4.11-11.75-8.81-18.59-12.37-.16-.09-.37-.03-.46.13-.07.12-.05.27.03.38,14.44,18.59,17.76,41.41,14.52,64.3-2.63,18.49-6.78,35.27-1.54,54.49.12.42.03,1.03-.27,1.82-3.15-1.03-5.85-2.78-8.11-5.25-.27-.29-.49-.25-.67.1-3.85,7.57-7.49,15.53-10.93,23.88-2.11-7.49-4.76-14.57-7.97-21.22-.14-.29-.35-.35-.62-.17l-5.44,3.6c-.47.3-1.09.17-1.4-.3-.18-.29-.21-.65-.07-.96,9.03-19.68,4.82-39.5,1.01-62.82-1.51-9.28-1.96-17.19-1.68-25.96.45-13.82,4.3-27.38,9.29-40.23.21-.54-.06-1.14-.59-1.35-.16-.06-.33-.08-.5-.06-13.23,1.49-21.8,4.62-34.62,11.17-.29.15-.64.11-.89-.09-19.23-15.43-38.79-28.74-61.38-38.84-5.26-2.35-25.28-9.86-27.92-4.54Zm56.14,190.1c12.82,13.77,32.46,11.26,45.71-.4.23-.21.35-.48.35-.8-.02-1.33-.26-2.52-.72-3.55-1.73-9.38-6.7-15.96-14.92-19.75-.38-.17-.64-.06-.77.33-.34.99-.35,2.24-.02,3.75,0,7.07-.13,17.71-4.66,23.1-.18.21-.5.23-.7.05-.02-.02-.04-.04-.06-.06-4.2-5.22-3.05-21.19-2.75-28.16,1.76-1.17,4.27-.05,6.19.32.09.02.15-.01.17-.1.03-.09.03-.19,0-.28-.01-.05-.05-.09-.1-.11-5.95-2.09-12.08-2.99-18.37-2.69l-1.44-.07c-6.24.15-12.04,1.18-17.4,3.09-.85.31-1.16.89-.93,1.76,2.24,8.68,5.71,16.54,10.42,23.57Zm-10.9,112.58c-5.38,4.98-1.99,14.2.17,21.64l10.11,39.15,8.06,30.23c2.72,7.96,7.42,9.69,15.8,9.77,40.39.37,80.79.37,121.19-.02,4.4-.05,7.55-.55,9.45-1.52,3.14-1.61,5.28-4.28,6.42-8.03,1.81-5.96,4.4-15.89,7.77-29.8l11.26-43.83c1.04-4.86,2.68-9.02.36-14.11-2.67-5.11-6.78-7.66-12.35-7.67-55.61-.05-111.21-.04-166.81.02-5.01,0-8.82,1.4-11.43,4.17Zm40.49,112.97c17.76.44,50.58.79,76.35.76,10.69-.01,22.87.29,34.33-.01,3.23-.08,4.73-.62,6.9-2.78.19-.19.18-.5-.01-.69-.09-.08-.2-.13-.32-.14-39.2-.88-78.54-.42-117.75-.29-1.57,0-3,.13-4.29.36-.49.09-.58.33-.27.72,1.06,1.32,2.75,2.01,5.06,2.07Z"/>
  <path class="cls-51" d="m385.16,130.3l-1.86-1.92c-9.03-5.56-18.67-8.72-28.92-9.48-.52-.03-.64-.27-.37-.72l4.83-7.88c.18-.29.44-.47.77-.54,10.12-2.03,23.84.79,33.01,3.75,2.29.74,2.42.47.39-.82-9.32-5.92-18.16-7.8-28.9-9.8-.91-.17-1.13-.66-.66-1.45,8.47-14.23,17.36-28.2,26.66-41.9.21-.31.63-.38.93-.17.11.07.19.17.24.29,3.07,7.54,3.46,16.81,4.08,24.87,1.65,21.71-.82,44.63-5.38,65.82-.06.28-.33.45-.6.39-.14-.03-.26-.12-.34-.24-3.87-6.59-8.22-12.86-13.05-18.79-.13-.15-.11-.38.04-.51.08-.07.18-.1.28-.08l11.94,1.54c.96.12,1.1-.16.42-.85-.75-.75-1.92-1.26-3.51-1.51Z"/>
  <path class="cls-57" d="m376.22,59.74c-30.81,9.33-51.98,28.43-73.89,50.89-.21.21-.29.09-.38-.13-.01-.04,0-.08.02-.11,17.18-22.41,45.63-45.83,74.2-50.87,1.22-.21,1.24-.14.05.22Z"/>
  <path class="cls-49" d="m253.05,245.05c-.43,7.27-2.01,14.61-4.73,22.02-3.7,10.06-16.11,12.93-16.61,24.45-.02.41.17.58.58.5l.41-.07c.07,3.45,17.9,1.47,16.36,14.38-1.53-1.71-3.1-3.4-4.71-5.07-7.48-7.76-18.11-5.85-27.76-5.4-3.99.19-7.27-1.16-11.06-2.07,6.95-9.38,14.63-18.77,24.81-24.82.25-.15.4-.42.39-.71-.91-25.54-6.53-48.01-36.14-50.84-19.85-1.9-37.98,2.31-58.13,7.7-.35.1-.49.33-.42.68.15.77.7,1.19,1.65,1.26.63.05,1.1.59,1.05,1.22-.01.19-.08.38-.18.54-10.66,16.45-26.8,27.76-46.66,19.06-7.01-3.07-13.29-7.25-18.82-12.54-.25-.24-.21-.42.11-.54,11.97-4.47,22.01-11.64,30.12-21.5,9.63-11.71,15.4-22.52,16.75-37.74.66-7.41.9-13.35.72-17.82-.09-2.25.66-3.62,2.27-4.11,15.8-4.86,31.74-5.78,47.83-2.76.32.05.62-.16.67-.47.03-.2-.03-.39-.18-.53-7.85-7.07-16.42-10.01-26.64-11.57-5.41-.82-12.7-.59-19.07-1.09-.62-.05-.68-.26-.19-.65,13.91-10.92,36.91-8.05,51.48-.67.24.12.54.02.66-.22.07-.13.07-.29,0-.43-2.15-4.37-4.33-8.56-6.55-12.56-.42-.75-1.29-1.16-2.61-1.21-1.06-3.25-2.48-6.38-4.27-9.38-.78-1.9-2.35-4.33-4.72-7.3-1.27-1.6-2.64-2.26-4.11-1.97.29-1.71-.22-3.5-1.54-5.38-9.58-13.69-20.76-25.08-33.54-34.16,2.64-5.32,22.66,2.19,27.92,4.54,22.59,10.1,42.15,23.41,61.38,38.84.25.2.6.24.89.09,12.82-6.55,21.39-9.68,34.62-11.17.57-.07,1.09.34,1.15.91.02.17,0,.34-.06.5-4.99,12.85-8.84,26.41-9.29,40.23-.28,8.77.17,16.68,1.68,25.96,3.81,23.32,8.02,43.14-1.01,62.82-.23.51,0,1.11.51,1.33.31.14.67.11.96-.07l5.44-3.6c.27-.18.48-.12.62.17,3.21,6.65,5.86,13.73,7.97,21.22Z"/>
  <path class="cls-51" d="m120.27,63.28c12.78,9.08,23.96,20.47,33.54,34.16,1.32,1.88,1.83,3.67,1.54,5.38-9.52-.03-18.2,2.46-26.05,7.48-1.49.95-1.36,1.3.38,1.03,3.63-.55,7.47-.94,11.54-1.15,7.54-.4,15.27.87,22.96,1.91,1.79,3,3.21,6.13,4.27,9.38-15.76-.49-28.32-.07-42.66,6.27-.01-1.93-.38-4.48-1.11-7.67-3.57-15.69-5.57-32.41-6-50.16-.47-1.74.06-3.95,1.59-6.63Z"/>
  <path class="cls-57" d="m118.68,69.91c.43,17.75,2.43,34.47,6,50.16.73,3.19,1.1,5.74,1.11,7.67-.43.47-.6.79-.49.94.2.31.59.44.95.34,3.99-1.11,8.01-2.01,12.06-2.72.12-.02.23.06.25.18.01.09-.03.18-.11.23-5.47,2.79-11.13,5.09-16.99,6.91-.99.31-1.61-.05-1.86-1.06-3.43-14.08-3.63-28.98-3.08-43.45.25-6.31.97-12.71,2.16-19.2Z"/>
  <path class="cls-60" d="m155.35,102.82c1.47-.29,2.84.37,4.11,1.97,2.37,2.97,3.94,5.4,4.72,7.3-7.69-1.04-15.42-2.31-22.96-1.91-4.07.21-7.91.6-11.54,1.15-1.74.27-1.87-.08-.38-1.03,7.85-5.02,16.53-7.51,26.05-7.48Z"/>
  <path class="cls-61" d="m400.26,272.83c-14.18.97-30.82-4.41-36.74-18.31-1.69-3.97-3.45-7.99-5.28-12.04,4.41-7.22,10.44-12.8,18.08-16.74.24-.12.34-.41.22-.66-.07-.14-.19-.23-.34-.26-12.99-2.99-25.96-5.39-38.89-7.21-15.12-2.12-33.49,1.27-43.58,13.32-7.86,9.39-10.61,25.26-11.63,37.59-.04.5.31.94.79,1.01,10.2,1.6,19.55,12.39,25.8,20.07-5.15,2.81-10.91,5.95-16.91,6.43-4.79.38-9.7.87-14.72,1.48,2.34-1.24,3.97-2.58,4.88-4.03.56-1.5-.16-2.85-2.15-4.04,1.98-.83,3.02-2.35,3.12-4.56.02-.33-.08-.65-.27-.91-5.62-7.51-9.37-15.48-9.97-25.12-.49-7.7-.76-15.3.21-22.99.35-2.8,1.07-6.93-.12-9.54.3-.79.39-1.4.27-1.82-5.24-19.22-1.09-36,1.54-54.49,3.24-22.89-.08-45.71-14.52-64.3-.12-.15-.09-.36.05-.48.11-.09.26-.1.38-.03,6.84,3.56,12.84,8.26,18.59,12.37,13.95,9.97,27.05,20.94,39.31,32.89,11.15,10.87,21.94,23.78,32.46,35.95,13.31,15.39,29.64,27.55,50.63,28.66,1.98.11,3.44.22,5.04,1.55,8.82,7.33,21,13.72,32.15,7.63.08-.04.18,0,.21.08.02.05.02.1,0,.14-4.24,7.01-9.51,13.11-15.82,18.31-.22.19-.25.53-.05.75.11.13.27.19.43.18l3.24-.27c.23-.02.42.15.44.38,0,.06,0,.12-.03.18-5.08,12.77-13.21,23.74-26.82,28.83Z"/>
  <path class="cls-62" d="m383.3,128.38l1.86,1.92c-15.67-2.18-30.29,0-44.73,6.67-.26.12-.35.04-.28-.23.03-.14.28-.26.38-.31,9.35-4.82,19.26-7.46,29.73-7.93,3.28-.15,8.55.57,13.04-.12Z"/>
  <path class="cls-60" d="m358.24,242.48c-7.52,10.58-12.29,18.3-21.94,23.98-9.85,4.55-20.81,4.7-30.47,5.13-.39.02-.51.21-.34.56,2.73,5.76,5.11,11.59,7.15,17.5.46,1.33.18,2.45-.44,3.61l-3.51-3.66c-6.25-7.68-15.6-18.47-25.8-20.07-.48-.07-.83-.51-.79-1.01,1.02-12.33,3.77-28.2,11.63-37.59,10.09-12.05,28.46-15.44,43.58-13.32,12.93,1.82,25.9,4.22,38.89,7.21.27.05.44.31.38.58-.03.15-.13.28-.26.34-7.64,3.94-13.67,9.52-18.08,16.74Zm-64.33,2.92l-2.2,7.42c-.1.33,0,.69.28.91,20.48,16.78,49.7,8.84,53.72-19.11l.76-5.43c.05-.33-.07-.6-.35-.79-.64-.43-1.41-.66-2.32-.67l-1.97-.64c-19.52-5.03-39.1-.94-47.92,18.31Z"/>
  <path class="cls-57" d="m272.76,226.32c1.19,2.61.47,6.74.12,9.54-.97,7.69-.7,15.29-.21,22.99.6,9.64,4.35,17.61,9.97,25.12.19.26.29.58.27.91-.1,2.21-1.14,3.73-3.12,4.56-1.87-1.29-3.46-1.92-4.79-1.9-11.48.18-22.96.27-34.43.27-2.84,0-5.46,1.38-7.87,4.14l-.41.07c-.41.08-.6-.09-.58-.5.5-11.52,12.91-14.39,16.61-24.45,2.72-7.41,4.3-14.75,4.73-22.02,3.44-8.35,7.08-16.31,10.93-23.88.18-.35.4-.39.67-.1,2.26,2.47,4.96,4.22,8.11,5.25Z"/>
  <path class="cls-59" d="m184.32,224.96c-.71,1.59-1.68,2.9-2.91,3.94-.25.22-.55.35-.88.4-3.35.46-5.02,2.44-5.03,5.95-.01,4.5-.12,9.02-.31,13.55-.01.33.09.62.31.87,1.23,1.36,1.54,2.6.91,3.71-4.71-7.03-8.18-14.89-10.42-23.57-.23-.87.08-1.45.93-1.76,5.36-1.91,11.16-2.94,17.4-3.09Z"/>
  <path class="cls-53" d="m184.32,224.96l1.44.07-2.93,3.83c-.19.26-.14.62.12.81.14.1.31.14.48.1,4.67-1.19,9.48-1.81,14.44-1.88-.3,6.97-1.45,22.94,2.75,28.16.17.21.48.24.7.07.02-.02.05-.04.07-.06,4.53-5.39,4.65-16.03,4.66-23.1,3.09.27,13.39,13.27,15.71,15.67.46,1.03.7,2.22.72,3.55,0,.32-.12.59-.35.8-13.25,11.66-32.89,14.17-45.71.4.63-1.11.32-2.35-.91-3.71-.22-.25-.32-.54-.31-.87.19-4.53.3-9.05.31-13.55,0-3.51,1.68-5.49,5.03-5.95.33-.05.63-.18.88-.4,1.23-1.04,2.2-2.35,2.91-3.94Z"/>
  <path class="cls-50" d="m185.76,225.03c6.29-.3,12.42.6,18.37,2.69.05.02.09.06.1.11.03.09.03.19,0,.28-.02.09-.08.12-.17.1-1.92-.37-4.43-1.49-6.19-.32-4.96.07-9.77.69-14.44,1.88-.31.07-.62-.12-.7-.43-.04-.17,0-.34.1-.48l2.93-3.83Z"/>
  <path class="cls-50" d="m341.83,227.09l.15,2.05c.03.28-.18.53-.47.55-.06,0-.11,0-.17-.01-7.38-1.79-14.71-2.59-21.98-2.4-2.27.24-4.37.5-6.3.78-1.2.18-1.68,1-1.43,2.45-4.27,6.21-8.59,11.78-12.97,16.73-.25.27-.53.33-.85.16l-3.9-2c8.82-19.25,28.4-23.34,47.92-18.31Z"/>
  <path class="cls-53" d="m341.83,227.09l1.97.64-.29.41c-.13.17-.17.37-.12.59l1.13,5.8c.06.32.37.54.7.49.17-.03.34-.16.49-.4-4.02,27.95-33.24,35.89-53.72,19.11-.27-.22-.38-.58-.28-.91l2.2-7.42,3.9,2c.32.17.6.11.85-.16,4.38-4.95,8.7-10.52,12.97-16.73-.1,8.05-1.06,21.5,4.27,25.94.25.21.5.2.75-.02,4.88-4.47,3.36-20.79,2.71-29.15,7.27-.19,14.6.61,21.98,2.4.28.07.56-.1.63-.37.01-.05.02-.11.01-.17l-.15-2.05Z"/>
  <path class="cls-60" d="m319.36,227.28c.65,8.36,2.17,24.68-2.71,29.15-.25.22-.5.23-.75.02-5.33-4.44-4.37-17.89-4.27-25.94-.25-1.45.23-2.27,1.43-2.45,1.93-.28,4.03-.54,6.3-.78Z"/>
  <path class="cls-55" d="m343.8,227.73c.91.01,1.68.24,2.32.67.28.19.4.46.35.79l-.76,5.43c-.15.24-.32.37-.49.4-.33.05-.64-.17-.7-.49l-1.13-5.8c-.05-.22,0-.42.12-.59l.29-.41Z"/>
  <path class="cls-50" d="m221.75,248.63c-2.32-2.4-12.62-15.4-15.71-15.67-.33-1.51-.32-2.76.02-3.75.13-.39.39-.5.77-.33,8.22,3.79,13.19,10.37,14.92,19.75Z"/>
  <path class="cls-49" d="m198.53,293.13c-24.45-3.46-43.66-4.32-65.69-5.83-.33-.03-.64.02-.94.13-.21.07-.42.11-.64.1-8.19-1.65-15.66-4.69-22.42-9.1-.31-.21-.4-.63-.19-.94.08-.12.2-.22.34-.27,18.97-6.44,33.19-18.47,42.65-36.09.22-.41.73-.57,1.15-.35.1.05.19.13.26.21,9.16,11.12,16.01,22.27,29.95,27.83,6.89,2.74,15.41,3.29,23.12,3.56.43.01.77.37.75.8,0,.08-.02.16-.04.24-2.5,6.86-5.27,13.43-8.3,19.71Z"/>
  <path class="cls-59" d="m358.24,242.48c1.83,4.05,3.59,8.07,5.28,12.04,5.92,13.9,22.56,19.28,36.74,18.31-10.02,5.76-24.39,8.44-35.75,9.62-10.21-.38-20.38.04-30.52,1.25-.57.07-1.08.07-1.55.02-.32-.04-.56-.33-.52-.65,0-.04.01-.07.02-.11,1.53-5.01,3.24-9.9,5.15-14.69.35-.87.05-1.51-.79-1.81,9.65-5.68,14.42-13.4,21.94-23.98Z"/>
  <path class="cls-61" d="m336.3,266.46c.84.3,1.14.94.79,1.81-1.91,4.79-3.62,9.68-5.15,14.69-.1.31.08.64.39.74.04.01.07.02.11.02.47.05.98.05,1.55-.02,10.14-1.21,20.31-1.63,30.52-1.25-.03.23-.12.35-.27.36-.55-.1-1.55-.04-2.99.19-16.62,2.61-31.76,5.98-45.41,10.13l-4.13,1.32c.44-.51.6-.91.49-1.19.62-1.16.9-2.28.44-3.61-2.04-5.91-4.42-11.74-7.15-17.5-.17-.35-.05-.54.34-.56,9.66-.43,20.62-.58,30.47-5.13Z"/>
  <path class="cls-57" d="m417.87,292.24c-.51.17-.84.19-.98.08l-8.3,1.64c-4.46-1.19-8.68-2.97-12.67-5.32,12.37,1.15,23.34-1.47,32.91-7.88.53-.35.59-.27.2.22-3.23,4.11-6.95,7.86-11.16,11.26Z"/>
  <path class="cls-52" d="m364.24,282.81c.15.73.65,1.08,1.52,1.04,11.04-.55,19.68,1.93,30.16,4.79,3.99,2.35,8.21,4.13,12.67,5.32.85.39,1.37.8,1.54,1.23.12.28-.02.6-.31.72-.03.01-.07.02-.1.03-4.15.83-8.31,1.09-12.5.78-19.99-1.45-43.25-2.42-60.95.22-6.08.65-11.98,1.74-17.71,3.27-.49-2.53-1.39-4.89-2.72-7.08,13.65-4.15,28.79-7.52,45.41-10.13,1.44-.23,2.44-.29,2.99-.19Z"/>
  <path class="cls-48" d="m198.53,293.13l-3.88,4.17c-14.83-2.9-29.7-4.68-44.59-5.34-4.5-.2-11.66-.97-19.32-2.85,1.13-.13,1.33-.8.52-1.58.22,0,.43-.03.64-.1.3-.11.61-.16.94-.13,22.03,1.51,41.24,2.37,65.69,5.83Z"/>
  <path class="cls-60" d="m279.79,289.44c1.99,1.19,2.71,2.54,2.15,4.04-4.65.79-8.78,2.3-12.41,4.53-2.49,1.52-3.59,4.37-3.31,8.54-.43,1.18-1.1,2.43-2,3.76-.16.23-1.13,1.25-2.9,3.05-4.63,4.68-.3,11.59,4.53,14.39-.64.74-1.83.35-3.56-1.16-2.49-2.12-5.4-4.23-7.62-.58l-1.32.95c-.34.24-.54.15-.59-.26l-.07-.59c2.94-2.8,4.2-6.2,3.78-10.19-.04-.35-.19-.65-.45-.9-2.81-2.68-5.13-5.58-6.96-8.69,1.54-12.91-16.29-10.93-16.36-14.38,2.41-2.76,5.03-4.14,7.87-4.14,11.47,0,22.95-.09,34.43-.27,1.33-.02,2.92.61,4.79,1.9Z"/>
  <path class="cls-49" d="m130.74,289.11c7.66,1.88,14.82,2.65,19.32,2.85,14.89.66,29.76,2.44,44.59,5.34-.71,1.05-.42,1.81.86,2.27-.44.27-.85.68-1.22,1.24-.61-.19-1.17-.27-1.69-.22-.42.04-.71.25-.88.64l-1.36,3.16c-.16.37-.44.6-.84.67-.74.15-1.64.25-2.7.3-19.62,1.03-42.92-1.63-58.05-15.94-.31-.29-.26-.5.15-.62.51-.15,1.11-.05,1.82.31Z"/>
  <path class="cls-49" d="m88.8,290.55l5.79,5.03c-2.89.46-8.24.01-9.09,3.03l-1.13,1.43c-1.99,3.07-3.51,6.62-4.56,10.67-.16.64.23,1.29.87,1.45.03,0,.07.02.1.02l.78.12c-13.8,28.64-8.27,62.06,13.39,84.92,1.59,3.32,1.95,6.91,1.07,10.77-.07.31-.23.38-.5.19-3.71-2.71-6.82-5.49-9.33-8.36-23.94-27.28-26.88-64.29-9.7-96.08,2.92-5.41,6.18-10.05,9.78-13.92.23-.26.52-.37.87-.32.74.09,1.29.44,1.66,1.05Z"/>
  <path class="cls-57" d="m308.69,289.6l3.51,3.66c.11.28-.05.68-.49,1.19l-12.86,4.15c-.84.27-1.3,1.18-1.03,2.02.06.19.16.37.29.52,1.21,1.44,2.06,2.16,4.08,2.07,5.55-.27,11.01-1.27,16.37-3,5.73-1.53,11.63-2.62,17.71-3.27.38.01.54.27.49.77-.04.32-.19.56-.46.73-.73.43-1.28,1.04-1.67,1.81l-14.14,2.36c-6.1,1.41-11.86,3.42-17.29,6.05-.81.4-1.14,1.37-.75,2.18.09.19.22.36.38.5,1.6,1.43,3.5,1.95,5.7,1.54l3.98.83c3.84,1.61,7.74,2.67,11.71,3.17l14.72,3.74,15.35,5.93c.3.83,1,1.46,2.1,1.87.65.62,1.53,1.54,2.3,1.93,18.33,9.24,32.25,20.72,41.58,38.6,1.75,3.37,2.96,6.68,3.61,9.94,0,.1-.07.2-.17.21-.08,0-.15-.04-.19-.11-8.08-23.8-26.58-39.54-49.46-48.65l-32.25-11.18c-4.74-1.82-15.02-4.73-19.65-2.08-.62.36-.83,1.14-.48,1.76.11.19.27.35.46.46,4.31,2.57,8.99,4.39,14.02,5.47l3.25,2.08c6.87,2.92,14.62,5.84,19.04,10.1,16.73,9.5,29.84,22.31,39.35,38.43,0,0,0,.01,0,.01,0,0-.01,0-.01,0-12.27-12.62-26.05-22.76-41.33-30.43-3.94-2.46-6.82-4-11.26-1.26-10.89,3.57-21.87,6.84-32.95,9.79-3.84,1.03-8.48,3.68-12.34,3.68-15.94-.01-31.87-.1-47.8-.25-.33,0-.63-.09-.9-.26-3.17-1.99-6.9-3.56-11.19-4.7-4.31-1.15-14.59-4.08-30.82-8.77-3.81-1.67-7.56-1.13-11.26,1.61-14.58,7.01-31.53,16.85-42.48,28.84-.35.39-.39.35-.13-.1,9.59-16.66,21.11-26.15,37.12-36.79.13-.09.16-.27.07-.4-.03-.05-.08-.09-.14-.11l-17.55-5.69c-.34-.11-.67-.09-.99.07-20.27,10.02-37.4,26.34-45.42,47.77-.1.25-.26.4-.52.34-.13-.03-.18-.12-.14-.25,6.26-21.22,25.12-37.31,43.44-48.12,1.35-.8,1.28-1.44-.22-1.93l-12.27-3.97c-.34-.1-.69-.08-1.01.06-5.31,2.4-10.35,5.26-15.11,8.57-5.08,3.54-10.19,7.11-15.32,10.72-.05.04-.12.03-.16-.02-.04-.05-.03-.12.02-.16h0c8.52-7.33,17.67-13.7,27.45-19.13.29-.16.39-.52.23-.81-.43-.78-1.52-.62-2.09-.76-15.47-3.88-30.36-2.55-44.67,3.99-.03-.44-.11-.55-.23-.33,2.77-2.64,12.15-4.7,15.99-5.53,10.96-2.4,22.57-1.18,33.51,1.24.32.07.65.05.96-.06,22.47-7.92,47.75-16.28,73.04-9.47,1.37.37,2.78.2,4.22-.52.85-.42,1.19-1.44.78-2.29-.1-.2-.24-.38-.41-.53-.71-.62-1.67-1.16-2.88-1.62-6.27-2.38-12.51-4.71-18.73-7,.37-.56.78-.97,1.22-1.24,4.09,1.36,8.24,2.52,12.46,3.47,2.15.48,18.01,2.37,17.04-1.87-.21-.92-.94-1.62-1.86-1.8-7.41-1.4-14.73-3.25-21.95-5.55-.87-.28-.85-.39.06-.33l4.27.3c3.79.91,7.07,2.26,11.06,2.07,9.65-.45,20.28-2.36,27.76,5.4,1.61,1.67,3.18,3.36,4.71,5.07,1.83,3.11,4.15,6.01,6.96,8.69.26.25.41.55.45.9.42,3.99-.84,7.39-3.78,10.19-7.58,5.31-16.16,8.22-25.73,8.74-6.1.33-11.84.82-17.74-.68-3.85-.98-7.62-2.23-11.32-3.74-.31-.13-.61-.11-.9.07l-7.3,4.56c-.19.13-.25.39-.12.58.04.06.1.12.17.15,14.47,6.47,31.24,6.68,46.38,2.93,6.27-1.56,12.62-4.78,18.66-7.68.9-.43,2.56-.74,4.98-.91l9.94,4.11c15.22,6.75,36.79,8.35,51.22-.14.18-.1.24-.33.13-.51-.04-.06-.09-.11-.15-.14l-5.62-2.71c-.31-.16-.64-.19-.98-.08-4.45,1.36-9.02,3.03-13.44,3.56-12.01,1.44-24.57.06-35.02-6.47-4.83-2.8-9.16-9.71-4.53-14.39,1.77-1.8,2.74-2.82,2.9-3.05.9-1.33,1.57-2.58,2-3.76,3.11-4.57,6.73-7.59,10.84-9.04,5.02-.61,9.93-1.1,14.72-1.48,6-.48,11.76-3.62,16.91-6.43Zm-120.26,22.91c-.49.06-.98.01-1.47-.14-15.55,1.12-30.55,4.71-45.02,10.76-.44.19-.44.37,0,.56,4.05,1.68,8.87,3.59,13.21,4.09.35.04.71-.02,1.03-.18,9.87-4.9,20.18-8.63,30.91-11.19.39-.09.6-.34.63-.73.06-.68-.05-1.41-.34-2.19.31-.26.75-.33,1.31-.22l.63,1.79c.11.32.34.47.67.45,4.86-.23,9.68-.81,14.45-1.75.19-.03.32-.21.29-.4-.03-.15-.14-.26-.29-.29-5.26-1.08-10.6-1.27-16.01-.56Zm5.52,13.28c1.34-.45,2.47-1.16,3.38-2.13l13.42-4.43c.66-.22,1.02-.94.8-1.61-.15-.45-.55-.78-1.02-.85-15.4-2.17-34.02,3.55-47.95,9.83-1.44.65-2.61,1.29-3.5,1.92-.23.17-.28.48-.11.71.06.08.14.14.23.18l14.56,5.15c.49.17.98.15,1.45-.06l18.74-8.71Z"/>
  <path class="cls-48" d="m88.8,290.55c1.92,1.09,4.92,2.46,9,4.11.72.29.92.86.61,1.73l-3.82-.81-5.79-5.03Z"/>
  <path class="cls-49" d="m417.87,292.24c.88,2,7.31,1.27,9.5,1.04.32-.03.6.05.85.26,10.45,8.7,16.74,24.27,19.7,37.02,5.92,25.56-4.34,60.06-25.49,76.6-.13.1-.31.08-.41-.05-.02-.03-.04-.07-.05-.1-1.2-4.68-1.08-8.44.35-11.28,10.2-12.93,16.94-28.32,17.53-44.72.23-6.63.2-10.97-.09-13.01-1.35-9.35-4.08-18.27-8.19-26.76l.84-.04c.32-.02.57-.29.57-.61l.03-1.51c.55-1.71-.09-6.61.39-7.13.23-.25.29-.54.16-.86-1.11-2.73-6.64-4.34-9.32-4.58l-5.53-.88-3.56-.74c-.25-.05-.42-.3-.37-.55.02-.1.07-.19.15-.26l1.96-1.76c.14.11.47.09.98-.08Z"/>
  <path class="cls-61" d="m416.89,292.32l-1.96,1.76c-.19.17-.21.47-.04.66.07.07.16.13.26.15l3.56.74c-1.32.29-2.31,1.21-2.96,2.78-1.61-.11-3.03-.11-4.24-.01-10.25.84-20.5.88-30.76.12-12.43-.93-26.01-.39-40.74,1.62-.9-.5-2.69-.46-5.38.11.39-.77.94-1.38,1.67-1.81.27-.17.42-.41.46-.73.05-.5-.11-.76-.49-.77,17.7-2.64,40.96-1.67,60.95-.22,4.19.31,8.35.05,12.5-.78.3-.06.5-.35.44-.65,0-.03-.02-.07-.03-.1-.17-.43-.69-.84-1.54-1.23l8.3-1.64Z"/>
  <path class="cls-60" d="m315.84,293.13c1.33,2.19,2.23,4.55,2.72,7.08-5.36,1.73-10.82,2.73-16.37,3-2.02.09-2.87-.63-4.08-2.07-.56-.68-.47-1.69.22-2.25.16-.13.33-.23.52-.29l12.86-4.15,4.13-1.32Z"/>
  <path class="cls-59" d="m281.94,293.48c-.91,1.45-2.54,2.79-4.88,4.03-4.11,1.45-7.73,4.47-10.84,9.04-.28-4.17.82-7.02,3.31-8.54,3.63-2.23,7.76-3.74,12.41-4.53Z"/>
  <path class="cls-61" d="m94.59,295.58l3.82.81c-2.5,2.33-5.22,4.37-8.16,6.13-.61-3-2.19-4.3-4.75-3.91.85-3.02,6.2-2.57,9.09-3.03Z"/>
  <path class="cls-57" d="m418.71,295.63l5.53.88c3.44,3.65,6.52,5.25,7.4,10.75.05.31.2.55.45.74.37.27.68.63.92,1.08l-.03,1.51c0,.32-.25.59-.57.61l-.84.04c-.63-.57-1.36-.96-2.19-1.18-4.31-4.42-8.86-8.3-13.63-11.65.65-1.57,1.64-2.49,2.96-2.78Z"/>
  <path class="cls-59" d="m424.24,296.51c2.68.24,8.21,1.85,9.32,4.58.13.32.07.61-.16.86-.48.52.16,5.42-.39,7.13-.24-.45-.55-.81-.92-1.08-.25-.19-.4-.43-.45-.74-.88-5.5-3.96-7.1-7.4-10.75Z"/>
  <path class="cls-60" d="m415.75,298.41c4.77,3.35,9.32,7.23,13.63,11.65-.69-.17-1.37.25-2.03,1.24l-6.63-.34c-.45-.03-.58.16-.39.57l2.61,5.73c.59,1.44,4.19,8.71,2.58,9.53-8.37-3.73-17.05-6.21-26.04-7.44-5.53-.76-12.67-.6-19.26-1.13,5.67-4.12,10.56-8.38,14.68-12.79.22-.25.2-.63-.04-.85-.1-.09-.22-.14-.35-.15l-54.5-4.29c14.73-2.01,28.31-2.55,40.74-1.62,10.26.76,20.51.72,30.76-.12,1.21-.1,2.63-.1,4.24.01Z"/>
  <path class="cls-57" d="m90.25,302.52c-1.11.93-2.29,1.44-3.53,1.53-.33.02-.64.2-.82.48l-1.97,2.97c-.13.2-.37.29-.6.23-1.74-.48,1.07-3.9,1.96-4.45.28-.18.38-.53.24-.82l-1.16-2.42,1.13-1.43c2.56-.39,4.14.91,4.75,3.91Z"/>
  <path class="cls-52" d="m340.01,300.14l54.5,4.29c.33.03.57.32.54.65-.01.13-.07.25-.15.35-4.12,4.41-9.01,8.67-14.68,12.79.18.04.36.08.53.12-19.19-5.67-37.85-9.37-57.27-9.45-.62-2.24-1.62-4.33-2.99-6.28l14.14-2.36c2.69-.57,4.48-.61,5.38-.11Z"/>
  <path class="cls-61" d="m84.37,300.04l1.16,2.42c.14.29.04.64-.24.82-.89.55-3.7,3.97-1.96,4.45.23.06.47-.03.6-.23l1.97-2.97c.18-.28.49-.46.82-.48,1.24-.09,2.42-.6,3.53-1.53l-7.36,7.31c-.67.82-1.11,1.64-1.33,2.47l-.78-.12c-.65-.11-1.1-.72-.99-1.37,0-.03.01-.07.02-.1,1.05-4.05,2.57-7.6,4.56-10.67Z"/>
  <path class="cls-60" d="m320.49,302.61c1.37,1.95,2.37,4.04,2.99,6.28.64.73,1.21,1.19,1.72,1.38.25.09.35.27.29.54,0,.04-12.2,1.19-13.74,1.5l-3.22.57c-2.2.41-4.1-.11-5.7-1.54-.67-.6-.73-1.63-.13-2.3.14-.16.31-.29.5-.38,5.43-2.63,11.19-4.64,17.29-6.05Z"/>
  <path class="cls-57" d="m380.75,318.34c.21.59.21,1.25.02,1.96-3.21-.05-6.34.67-9.39,2.15-1.77.67-3.51.57-5.22-.29-10.17-2.94-20.65-5.19-31.44-6.75l-9.99-1.84c-3.89-.65-7.97-.82-12.24-.51-.57-.29-.82-.54-.74-.75,1.54-.31,13.73-1.46,13.74-1.5.06-.27-.04-.45-.29-.54-.51-.19-1.08-.65-1.72-1.38,19.42.08,38.08,3.78,57.27,9.45Z"/>
  <path class="cls-54" d="m82.89,309.83c1.38.39,2.18,1,2.4,1.83l-7.15,19.29c-.97,8.61-1.17,15.78-.62,21.49,1.49,15.29,7.91,29.01,19.26,41.14.38.44-.23,1.65-1.83,3.64-21.66-22.86-27.19-56.28-13.39-84.92.22-.83.66-1.65,1.33-2.47Z"/>
  <path class="cls-54" d="m429.38,310.06c.83.22,1.56.61,2.19,1.18,4.11,8.49,6.84,17.41,8.19,26.76.29,2.04.32,6.38.09,13.01-.59,16.4-7.33,31.79-17.53,44.72,1.15-2.19.87-3.96-.86-5.32,11.71-15.04,16.73-32.2,15.04-51.47-.29-3.23-.8-6.08-1.54-8.56l-4.58-13.9c-.55-2.1-1.56-3.83-3.03-5.18.66-.99,1.34-1.41,2.03-1.24Z"/>
  <path class="cls-49" d="m87.81,326.59c.12-.22.2-.11.23.33-.86.6-1.59,1.18-1.73,2.32-1.06,8.47-1.31,15.48-.76,21.02,1.37,13.69,6.49,24.9,13.81,36.61.18.29.23.61.15.94-.43,1.79-1.34,3.72-2.73,5.77-11.35-12.13-17.77-25.85-19.26-41.14-.55-5.71-.35-12.88.62-21.49,2.77-.55,5.41-1.81,7.91-3.77.17-.14.16-.25-.05-.33-1.28-.5-2.01-1.44-2.18-2.82-.6-4.85.97-8.56,4.72-11.12.34-.24.43-.72.19-1.06-.11-.16-.28-.27-.47-.3l-.79-.14,5.03-.85c.42-.07.53.08.33.46-.58,1.09-7.35,16.06-5.02,15.57Z"/>
  <path class="cls-49" d="m427.35,311.3c1.47,1.35,2.48,3.08,3.03,5.18-1.09.05-2.28.58-3.57,1.59-.34.27-.82.24-1.13-.06l-1.39-1.32c-.25-.24-.61-.3-.92-.15-.26.13-.4.37-.43.72l-2.61-5.73c-.19-.41-.06-.6.39-.57l6.63.34Z"/>
  <path class="cls-59" d="m87.47,311.41l.79.14c.41.08.67.47.59.89-.04.19-.15.36-.31.47-3.75,2.56-5.32,6.27-4.72,11.12.17,1.38.9,2.32,2.18,2.82.21.08.22.19.05.33-2.5,1.96-5.14,3.22-7.91,3.77l7.15-19.29c1.01.05,1.74-.03,2.18-.25Z"/>
  <path class="cls-60" d="m188.69,313.27l-.26-.76c5.41-.71,10.75-.52,16.01.56.19.03.32.21.29.4-.03.15-.14.26-.29.29-4.77.94-9.59,1.52-14.45,1.75-.33.02-.56-.13-.67-.45l-.63-1.79Z"/>
  <path class="cls-52" d="m311.75,312.31c-.08.21.17.46.74.75l.02.65-3.98-.83,3.22-.57Z"/>
  <path class="cls-60" d="m186.96,312.37l.42,1.12c.29.78.4,1.51.34,2.19-.03.39-.24.64-.63.73-10.73,2.56-21.04,6.29-30.91,11.19-.32.16-.68.22-1.03.18-4.34-.5-9.16-2.41-13.21-4.09-.44-.19-.44-.37,0-.56,14.47-6.05,29.47-9.64,45.02-10.76Z"/>
  <path class="cls-62" d="m186.96,312.37c.49.15.98.2,1.47.14l.26.76c-.56-.11-1-.04-1.31.22l-.42-1.12Z"/>
  <path class="cls-60" d="m324.73,313.57c.15,1.2-.02,2.3-.51,3.31-3.97-.5-7.87-1.56-11.71-3.17l-.02-.65c4.27-.31,8.35-.14,12.24.51Z"/>
  <path class="cls-62" d="m324.73,313.57l9.99,1.84c.55,1.68,1.95,3.42,4.22,5.21l-14.72-3.74c.49-1.01.66-2.11.51-3.31Z"/>
  <path class="cls-50" d="m334.72,315.41c10.79,1.56,21.27,3.81,31.44,6.75-3.88,2.3-7.84,3.76-11.87,4.39l-15.35-5.93c-2.27-1.79-3.67-3.53-4.22-5.21Z"/>
  <path class="cls-60" d="m321.81,319.16c-.09.93-.44,1.69-1.06,2.3-1.28,1.47-2.81,2.57-4.59,3.31-5.03-1.08-9.71-2.9-14.02-5.47-.61-.36-.81-1.15-.45-1.76.11-.19.27-.35.47-.46,4.63-2.65,14.91.26,19.65,2.08Z"/>
  <path class="cls-60" d="m197.33,323.66c-1.91-.92-3.77-2.39-5.56-4.4-.27-.29-.72-.3-1-.04-.24.22-.3.58-.14.87l3.32,5.7-18.74,8.71c-.47.21-.96.23-1.45.06l-14.56-5.15c-.26-.1-.4-.39-.3-.66.04-.09.1-.17.18-.23.89-.63,2.06-1.27,3.5-1.92,13.93-6.28,32.55-12,47.95-9.83.69.1,1.17.75,1.07,1.44-.07.47-.4.87-.85,1.02l-13.42,4.43Z"/>
  <path class="cls-59" d="m430.38,316.48l4.58,13.9-4.01,1.2c-.36.11-.59.34-.7.7l-1.29,4.5c-.03-2.49-.47-4.88-1.3-7.17-.11-.31-.3-.56-.56-.77l-1.84-1.44c-.04-.16.05-.36.26-.61,1.61-.82-1.99-8.09-2.58-9.53.03-.35.17-.59.43-.72.31-.15.67-.09.92.15l1.39,1.32c.31.3.79.33,1.13.06,1.29-1.01,2.48-1.54,3.57-1.59Z"/>
  <path class="cls-56" d="m380.75,318.34c-.17-.04-.35-.08-.53-.12,6.59.53,13.73.37,19.26,1.13,8.99,1.23,17.67,3.71,26.04,7.44-.21.25-.3.45-.26.61-15.51-6.96-27.03-7.36-44.49-7.1.19-.71.19-1.37-.02-1.96Z"/>
  <path class="cls-56" d="m197.33,323.66c-.91.97-2.04,1.68-3.38,2.13l-3.32-5.7c-.19-.34-.07-.77.27-.97.29-.16.65-.1.87.14,1.79,2.01,3.65,3.48,5.56,4.4Z"/>
  <path class="cls-62" d="m321.81,319.16l32.25,11.18c-5.5,1.36-10.7,3.56-15.61,6.61-4.42-4.26-12.17-7.18-19.04-10.1l2.25-4.47c.15-.29.1-.54-.14-.75-.19-.16-.44-.22-.77-.17.62-.61.97-1.37,1.06-2.3Z"/>
  <path class="cls-56" d="m320.75,321.46c.33-.05.58.01.77.17.24.21.29.46.14.75l-2.25,4.47-3.25-2.08c1.78-.74,3.31-1.84,4.59-3.31Z"/>
  <path class="cls-56" d="m366.16,322.16c1.71.86,3.45.96,5.22.29,14.13,6.15,27.12,13.77,38.97,22.86.05.05.04.12,0,.17-.04.03-.09.04-.13.02-8.29-5.38-35.25-24-43.8-21.49-3.51,1.04-6.85,2.51-10.02,4.41-1.1-.41-1.8-1.04-2.1-1.87,4.03-.63,7.99-2.09,11.87-4.39Z"/>
  <path class="cls-52" d="m262.29,326.59c-.37.18-.67.44-.9.77-.21.31-.13.73.17.93.01,0,.03.02.05.03l8.01,4.56c.32.18.44.45.37.81-.05.21-.14.4-.28.55l-9.94-4.11c.78-3.9-2-4.61-5.1-4.12,2.22-3.65,5.13-1.54,7.62.58Z"/>
  <path class="cls-50" d="m259.77,330.13c-2.42.17-4.08.48-4.98.91-6.04,2.9-12.39,6.12-18.66,7.68-15.14,3.75-31.91,3.54-46.38-2.93-.21-.1-.3-.35-.2-.56.03-.07.08-.13.15-.17l7.3-4.56c.29-.18.59-.2.9-.07,3.7,1.51,7.47,2.76,11.32,3.74,5.9,1.5,11.64,1.01,17.74.68,9.57-.52,18.15-3.43,25.73-8.74l.07.59c.05.41.25.5.59.26l1.32-.95c3.1-.49,5.88.22,5.1,4.12Z"/>
  <path class="cls-50" d="m262.29,326.59c1.73,1.51,2.92,1.9,3.56,1.16,10.45,6.53,23.01,7.91,35.02,6.47,4.42-.53,8.99-2.2,13.44-3.56.34-.11.67-.08.98.08l5.62,2.71c.18.09.26.31.16.5-.03.06-.08.12-.14.15-14.43,8.49-36,6.89-51.22.14.14-.15.23-.34.28-.55.07-.36-.05-.63-.37-.81l-8.01-4.56c-.32-.18-.43-.58-.25-.91,0-.02.02-.03.03-.05.23-.33.53-.59.9-.77Z"/>
  <path class="cls-49" d="m434.96,330.38c.74,2.48,1.25,5.33,1.54,8.56,1.69,19.27-3.33,36.43-15.04,51.47-.23.52-.55.92-.96,1.19-.33.22-.62.18-.87-.13l-2.85-3.51c-.42-.53-.47-1.27-.11-1.84,4.36-6.99,7.72-14.42,10.07-22.28,2.62-8.76,2.78-17.91,2.22-27.06l1.29-4.5c.11-.36.34-.59.7-.7l4.01-1.2Z"/>
  <path class="cls-49" d="m336.45,344.96l-.68,4.81c-.05.37-.26.55-.63.54l-8.78-.3c-.35-.01-.55-.19-.58-.54l-.59-5.77c4.44-2.74,7.32-1.2,11.26,1.26Z"/>
  <path class="cls-49" d="m189.19,343.19l-.14,6.22c-.01.47-.39.84-.86.84h-8.71c-.37,0-.54-.19-.51-.56.16-1.79-.19-3.42-1.04-4.89,3.7-2.74,7.45-3.28,11.26-1.61Z"/>
  <path class="cls-57" d="m356.1,369.44l-.15.52c-.09.32-.42.5-.74.41-.11-.03-.2-.09-.28-.17-1.89-2.03-4.01-3.79-6.36-5.27-.28-.18-.6-.28-.94-.31l-6.01-.44c-8.61.21-17.44.34-26.47.41-31.16.21-53.54-.01-93.65.26-15.52.11-31.13-.38-46.69-.29-1.6,0-4.7.47-9.3,1.4,2.61-2.77,6.42-4.16,11.43-4.17,55.6-.06,111.2-.07,166.81-.02,5.57,0,9.68,2.56,12.35,7.67Z"/>
  <path class="cls-55" d="m341.62,364.18c-6.56,7.43-13.11,14.97-19.66,22.64-3.48,4.07-6.03,5.65-10.95,6.96-6.31,1.67-19.68,5.48-24.75,3.53-.49-.18-1.04.07-1.22.57-.13.37-.03.77.26,1.03,2.15,1.88,3.24,4.23,3.27,7.04-2.27-3.52-10.66-17.83-14.39-18.14-4.48-.36-13.41-.44-26.8-.23-.34,0-.64.12-.89.34l-1.97,1.68c-21.16.39-42.06-.34-62.69-2.19-4.68-.42-9.24-2.22-14.14-2.97-.32-.05-.47.09-.45.41.09,1.63-.43,2.54-1.56,2.75-2.16-7.44-5.55-16.66-.17-21.64,4.6-.93,7.7-1.39,9.3-1.4,15.56-.09,31.17.4,46.69.29,40.11-.27,62.49-.05,93.65-.26,9.03-.07,17.86-.2,26.47-.41Z"/>
  <path class="cls-56" d="m356.1,369.44c2.32,5.09.68,9.25-.36,14.11-1.41.33-2.8.69-4.19,1.07-4.75,1.3-7.01,4.66-12.37,5.35-3.21.42-6.16,1.83-9.05,2.35-4.13.76-9.25,1.2-12.58,3.89-6.08,4.93-11.75,13.17-18.49,21.6-1.01,1.26-2.49,5.44-4.15,3.2,1.06-1.31,1.24-2.54.53-3.7-2.38-3.9-4.67-7.69-6.87-11.36-.03-2.81-1.12-5.16-3.27-7.04-.39-.35-.42-.95-.07-1.34.26-.29.67-.39,1.03-.26,5.07,1.95,18.44-1.86,24.75-3.53,4.92-1.31,7.47-2.89,10.95-6.96,6.55-7.67,13.1-15.21,19.66-22.64l6.01.44c.34.03.66.13.94.31,2.35,1.48,4.47,3.24,6.36,5.27.22.24.6.26.85.04.08-.08.14-.17.17-.28l.15-.52Z"/>
  <path class="cls-62" d="m355.74,383.55l-11.26,43.83c-2.26.92-17.65,8.31-18.34,8.18-.32-.05-.64-.04-.97.03-12.86,2.87-25.63,7.39-37.98,10.07-16.24,3.51-31.67,6.66-48.35,7.53-4,.21-7.99,1.8-12.34,1.82-7.01.01-14.01.24-21,.68-3.18.2-6.35.06-9.52-.42-4.06-.61-8.1,1.04-12.13,1.71l-8.06-30.23c8.01-1.14,16.26-2.83,24.59-1.8,9.07,1.12,16.16,1.4,24.62,1.28.43,0,.77-.36.78-.79,0-.32-.09-.46-.3-.43-.11.02-.22-.06-.24-.18,0-.03,0-.06,0-.09.68-2.29,3.92,3.76,4.87.6l9.77,11.87c.21.27.49.4.83.41,12.87.38,25.75.37,38.62-.04,3.37-.11,13.21-13.54,15.57-16.57,1.66,2.24,3.14-1.94,4.15-3.2,6.74-8.43,12.41-16.67,18.49-21.6,3.33-2.69,8.45-3.13,12.58-3.89,2.89-.52,5.84-1.93,9.05-2.35,5.36-.69,7.62-4.05,12.37-5.35,1.39-.38,2.78-.74,4.19-1.07Z"/>
  <path class="cls-56" d="m244.52,389.6c-4.43,6.29-9.8,14.48-16.11,24.57-1.1,1.75-1.85,3.38-2.25,4.89-.09.35-.03.68.18.97l3.78,5.31c-.95,3.16-4.19-2.89-4.87-.6-.03.11.03.23.14.26.03,0,.06.01.09,0,.21-.03.31.11.3.43,0,.43-.35.78-.78.79-8.46.12-15.55-.16-24.62-1.28-8.33-1.03-16.58.66-24.59,1.8l-10.11-39.15c1.13-.21,1.65-1.12,1.56-2.75-.02-.32.13-.46.45-.41,4.9.75,9.46,2.55,14.14,2.97,20.63,1.85,41.53,2.58,62.69,2.19Z"/>
  <path class="cls-60" d="m288.57,405.95c2.2,3.67,4.49,7.46,6.87,11.36.71,1.16.53,2.39-.53,3.7-2.36,3.03-12.2,16.46-15.57,16.57-12.87.41-25.75.42-38.62.04-.34,0-.62-.14-.83-.41l-9.77-11.87-3.78-5.31c-.21-.29-.27-.62-.18-.97.4-1.51,1.15-3.14,2.25-4.89,6.31-10.09,11.68-18.28,16.11-24.57l1.97-1.68c.25-.22.55-.33.89-.34,13.39-.21,22.32-.13,26.8.23,3.73.31,12.12,14.62,14.39,18.14Zm-38.17-12.91c-2.6,2.35-5.01,5.5-7.24,9.47l-9.79,15.16c-.35.55-.34,1.26.03,1.79,1.58,2.3,8.49,12.75,11.16,12.76,10.45.05,20.9.05,31.35,0,3.84-.01,8.43-7.35,11.35-11.19.57-.74.97-1.43,1.22-2.06.13-.33.11-.65-.07-.96-4.41-7.55-9.2-14.91-14.38-22.07-2.24-4.03-7.69-2.98-11.53-2.9h-12.1Z"/>
  <path class="cls-57" d="m161.63,406.24c.09.46-.36.79-1.36,1-16.81-.28-31.06-.36-42.77-.25-3.12.03-6.02-.34-8.7-1.11-.31-.08-.58-.26-.78-.5-4.26-5-3.9-13.39,2.73-15.93,1.21-.47,3.08-.7,5.59-.7h39.8c.44,0,.83.29.94.72l4.55,16.77Z"/>
  <path class="cls-57" d="m359.73,407.11c-.24-.06-.43-.19-.58-.38l4.6-17.48c.08-.33.29-.49.62-.49,11.69-.03,23.39-.03,35.1,0,2.65,0,4.74.42,6.28,1.26,4.83,2.62,7.83,10.17,3.42,14.82-1.32,1.39-2.77,2.09-4.35,2.1-15.02.06-30.05.12-45.09.17Z"/>
  <path class="cls-56" d="m262.5,393.04c-1.22.29-1.64,1.04-1.27,2.25.12.39-.02.63-.42.72-3.1.72-4.12,1.49-3.06,2.31-1.28,1.15-2.27,2.53-2.96,4.16l-.04-.47c-.02-.27-.17-.42-.44-.44l-2.79-.24c-.29-.02-.54.19-.56.47,0,.06,0,.11.02.17l.8,3.16c.17.72.89,1.16,1.61.99.54-.13.94-.57,1.02-1.11l.24-1.5c.16,2.26.89,4.46,2.2,6.61.17.28.12.64-.12.86l-9.14,8.43c-.3.28-.44.69-.37,1.09.65,3.99,2.66,7.92,7.4,7.18.49-.07.66-.35.5-.82l-1.15-3.38c-.42-1.21-.13-2.23.86-3.04l6.23-5.13c.25-.2.61-.2.86,0l5.76,4.66c.64.51.86,1.38.56,2.15l-1.81,4.56c-.16.39-.04.65.36.79,4.06,1.43,5.9-1.05,7.37-4.31.97-2.17.45-4.14-1.57-5.92-2.21-1.95-4.46-3.86-6.77-5.72-.51-.41-.64-1.13-.31-1.69l3.08-5.26c1.38.27,2.19-.32,2.43-1.75.06-.32-.04-.65-.26-.9l-.73-.82c-.33-.37-.27-.65.18-.85,1.89-.81,3.16-2.24,3.82-4.31,5.18,7.16,9.97,14.52,14.38,22.07.18.31.2.63.07.96-.25.63-.65,1.32-1.22,2.06-2.92,3.84-7.51,11.18-11.35,11.19-10.45.05-20.9.05-31.35,0-2.67-.01-9.58-10.46-11.16-12.76-.37-.53-.38-1.24-.03-1.79l9.79-15.16c.28.64.77,1.13,1.47,1.46.49.23.73.07.73-.46v-1.04c0-.39.2-.61.59-.65l.87-.09c.29-.03.5.09.64.34.48.84,1.14,1.53,1.98,2.07.15.09.35.04.44-.11.06-.1.06-.23,0-.33-1.17-1.79-.86-3.18.93-4.18.29-.16.53-.39.69-.68,1.33-2.32,3.35-3.72,6.08-4.19.36-.07.49-.27.4-.62-.3-1.08-6.54-.89-7.58-.99h12.1Z"/>
  <path class="cls-55" d="m262.5,393.04c3.84-.08,9.29-1.13,11.53,2.9-.66,2.07-1.93,3.5-3.82,4.31-.45.2-.51.48-.18.85l.73.82c.22.25.32.58.26.9-.24,1.43-1.05,2.02-2.43,1.75-1.31-6.15-4.93-8.23-10.84-6.25-1.06-.82-.04-1.59,3.06-2.31.4-.09.54-.33.42-.72-.37-1.21.05-1.96,1.27-2.25Z"/>
  <path class="cls-55" d="m250.4,393.04c1.04.1,7.28-.09,7.58.99.09.35-.04.55-.4.62-2.73.47-4.75,1.87-6.08,4.19-.16.29-.4.52-.69.68-1.79,1-2.1,2.39-.93,4.18.09.15.04.35-.11.44-.1.06-.23.06-.33,0-.84-.54-1.5-1.23-1.98-2.07-.14-.25-.35-.37-.64-.34l-.87.09c-.39.04-.59.26-.59.65v1.04c0,.53-.24.69-.73.46-.7-.33-1.19-.82-1.47-1.46,2.23-3.97,4.64-7.12,7.24-9.47Z"/>
  <path class="cls-60" d="m268.59,404.57l-3.08,5.26c-.33.56-.2,1.28.31,1.69,2.31,1.86,4.56,3.77,6.77,5.72,2.02,1.78,2.54,3.75,1.57,5.92-1.47,3.26-3.31,5.74-7.37,4.31-.4-.14-.52-.4-.36-.79l1.81-4.56c.3-.77.08-1.64-.56-2.15l-5.76-4.66c-.25-.2-.61-.2-.86,0l-6.23,5.13c-.99.81-1.28,1.83-.86,3.04l1.15,3.38c.16.47,0,.75-.5.82-4.74.74-6.75-3.19-7.4-7.18-.07-.4.07-.81.37-1.09l9.14-8.43c.24-.22.29-.58.12-.86-1.31-2.15-2.04-4.35-2.2-6.61l.14-1.03c.69-1.63,1.68-3.01,2.96-4.16,5.91-1.98,9.53.1,10.84,6.25Zm-7.31,1.16c.78.21,1.65-.5,1.95-1.6t0,0c.3-1.1-.09-2.16-.86-2.37,0,0,0,0,0,0-.78-.21-1.65.5-1.95,1.6,0,0,0,0,0,0-.3,1.1.09,2.16.86,2.37h0Z"/>
  <path class="cls-55" d="m254.79,402.48l-.14,1.03-.24,1.5c-.11.73-.78,1.24-1.52,1.14-.54-.08-.99-.48-1.11-1.02l-.8-3.16c-.07-.27.09-.55.37-.62.06-.01.11-.02.17-.02l2.79.24c.27.02.42.17.44.44l.04.47Z"/>
  <ellipse class="cls-56" cx="261.82" cy="403.74" rx="2.06" ry="1.46" transform="translate(-196.7 549.74) rotate(-74.7)"/>
  <path class="cls-62" d="m161.63,406.24l1.17,3.99c-.42-.04-.79.07-1.12.34.39-2.62-.08-3.73-1.41-3.33,1-.21,1.45-.54,1.36-1Z"/>
  <path class="cls-62" d="m359.15,406.73c.15.19.34.32.58.38-.45.8-.61,1.88-.48,3.24-.29-.13-.61-.16-.96-.1l.86-3.52Z"/>
  <path class="cls-57" d="m162.8,410.23l4.98,19.9c-.53.05-.83.18-.92.39l-1.92-8.37c-.07-.31-.34-.52-.66-.53-18.21-.17-36.38-.2-54.52-.08-2.13.02-8.52.07-10.8-1.52-4.54-3.17-1.2-8.91,3.79-8.99,18.75-.32,37.5-.39,56.25-.21,1.04,0,1.93-.08,2.68-.25.33-.27.7-.38,1.12-.34Z"/>
  <path class="cls-57" d="m358.29,410.25c.35-.06.67-.03.96.1,2.24.7,4.79.25,6.56.27,15.98.17,31.97.33,47.98.48,6.59.07,7.78,8.44,2.7,9.64-1.28.3-3.38.51-5,.52-18.33.18-36.66.29-54.98.32-.54,0-.91-.12-1.11-.34l2.89-10.99Z"/>
  <path class="cls-50" d="m355.4,421.24c.2.22.57.33,1.11.34-1.18.28-2.56,7.38-3.02,8.81-.18,0-.36,0-.53-.01l2.44-9.14Z"/>
  <path class="cls-50" d="m344.48,427.38c-3.37,13.91-5.96,23.84-7.77,29.8-1.14,3.75-3.28,6.42-6.42,8.03-1.9.97-5.05,1.47-9.45,1.52-40.4.39-80.8.39-121.19.02-8.38-.08-13.08-1.81-15.8-9.77,4.03-.67,8.07-2.32,12.13-1.71,3.17.48,6.34.62,9.52.42,6.99-.44,13.99-.67,21-.68,4.35-.02,8.34-1.61,12.34-1.82,16.68-.87,32.11-4.02,48.35-7.53,12.35-2.68,25.12-7.2,37.98-10.07.33-.07.65-.08.97-.03.69.13,16.08-7.26,18.34-8.18Z"/>
  <path class="cls-58" d="m282.35,479.69c-25.77.03-58.59-.32-76.35-.76-2.31-.06-4-.75-5.06-2.07-.31-.39-.22-.63.27-.72,1.29-.23,2.72-.35,4.29-.36,39.21-.13,78.55-.59,117.75.29.27.01.48.24.47.51,0,.12-.05.23-.14.32-2.17,2.16-3.67,2.7-6.9,2.78-11.46.3-23.64,0-34.33.01Z"/>
</svg>